<svg width="52" height="48" viewBox="0 0 52 48" fill="none" xmlns="http://www.w3.org/2000/svg">
<path d="M0.719756 1.66469C0.465472 1.77237 0.346624 2.06579 0.454301 2.32008C0.561979 2.57436 0.855407 2.69321 1.10969 2.58553L0.719756 1.66469ZM33.243 25.1117L32.763 25.2519L33.243 25.1117ZM24.5 18.0004L24.7499 18.4335L24.5 18.0004ZM48.2619 47.9396C48.5047 48.0712 48.8081 47.981 48.9396 47.7381L51.0829 43.7813C51.2144 43.5385 51.1242 43.2351 50.8814 43.1035C50.6386 42.972 50.3351 43.0622 50.2036 43.305L48.2985 46.8222L44.7813 44.9171C44.5385 44.7856 44.2351 44.8758 44.1035 45.1186C43.972 45.3614 44.0622 45.6648 44.305 45.7964L48.2619 47.9396ZM0.914723 2.12511C1.10969 2.58553 1.10947 2.58563 1.10934 2.58568C1.10941 2.58565 1.10936 2.58567 1.1095 2.58561C1.10978 2.5855 1.1104 2.58523 1.11137 2.58483C1.1133 2.58402 1.1166 2.58265 1.12125 2.58075C1.13054 2.57693 1.14523 2.57096 1.16518 2.56302C1.20507 2.54716 1.26598 2.52346 1.34681 2.49351C1.50849 2.4336 1.74973 2.3487 2.06177 2.25139C2.68607 2.05668 3.59239 1.8127 4.71084 1.61945C6.94952 1.23263 10.0253 1.05122 13.3872 1.86434C20.0664 3.47984 28.0359 9.06318 32.763 25.2519L33.7229 24.9716C28.919 8.52008 20.7243 2.61013 13.6222 0.892366C10.0934 0.0388561 6.87421 0.230825 4.54058 0.634047C3.37286 0.835812 2.42369 1.09101 1.76404 1.29673C1.4341 1.39963 1.17625 1.49026 0.999336 1.55582C0.910867 1.5886 0.842602 1.61513 0.795646 1.63381C0.772167 1.64314 0.754011 1.65052 0.741318 1.65573C0.734971 1.65834 0.72999 1.6604 0.726391 1.66191C0.724591 1.66266 0.723137 1.66327 0.72203 1.66373C0.721477 1.66396 0.720908 1.6642 0.720631 1.66432C0.72015 1.66452 0.719756 1.66469 0.914723 2.12511ZM32.763 25.2519C33.2863 27.0439 33.323 28.325 33.0791 29.201C32.8429 30.0493 32.3383 30.5447 31.6662 30.7955C30.9683 31.0561 30.0506 31.0648 29.0126 30.8277C27.9811 30.5921 26.8715 30.1226 25.8191 29.4791C23.6963 28.181 21.9127 26.2438 21.4173 24.2519C21.1736 23.2717 21.2395 22.2764 21.7293 21.3087C22.2228 20.3336 23.1673 19.3466 24.7499 18.4335L24.2502 17.5673C22.5514 18.5474 21.4421 19.6617 20.8371 20.8571C20.2284 22.0597 20.1511 23.3039 20.4469 24.4932C21.0306 26.8403 23.0576 28.9625 25.2975 30.3322C26.4265 31.0226 27.6363 31.5391 28.7899 31.8026C29.9369 32.0646 31.0699 32.0855 32.016 31.7324C32.9879 31.3696 33.7205 30.6255 34.0424 29.4693C34.3566 28.3409 34.2722 26.8526 33.7229 24.9716L32.763 25.2519ZM24.7499 18.4335C26.2761 17.553 27.7485 17.3353 29.1703 17.6057C30.6042 17.8785 32.0236 18.6555 33.4118 19.8275C36.1958 22.1779 38.7533 26.0299 40.9325 30.1704C43.106 34.3 44.8787 38.6684 46.1089 42.0087C46.7237 43.6779 47.2021 45.088 47.5267 46.0803C47.689 46.5763 47.8128 46.9678 47.8959 47.2348C47.9374 47.3683 47.9688 47.4707 47.9897 47.5395C48.0001 47.5739 48.0079 47.5999 48.0131 47.6171C48.0157 47.6258 48.0177 47.6322 48.0189 47.6365C48.0196 47.6386 48.02 47.6401 48.0203 47.6412C48.0205 47.6417 48.0206 47.642 48.0207 47.6422C48.0207 47.6424 48.0207 47.6425 48.5 47.5C48.9793 47.3575 48.9792 47.3573 48.9791 47.3569C48.979 47.3566 48.9788 47.3561 48.9787 47.3555C48.9783 47.3542 48.9777 47.3524 48.977 47.3501C48.9756 47.3453 48.9736 47.3384 48.9708 47.3293C48.9653 47.311 48.9572 47.2841 48.9464 47.2487C48.9249 47.1779 48.8929 47.0734 48.8507 46.9378C48.7663 46.6665 48.6411 46.2703 48.4772 45.7693C48.1494 44.7674 47.6669 43.3455 47.0473 41.6631C45.8088 38.3004 44.019 33.8875 41.8175 29.7047C39.6217 25.5328 36.9917 21.5411 34.0569 19.0634C32.5858 17.8214 31.013 16.9384 29.3571 16.6234C27.689 16.306 25.974 16.5728 24.2502 17.5673L24.7499 18.4335Z" fill="#193766"/>
</svg>
