<svg width="73" height="39" viewBox="0 0 73 39" fill="none" xmlns="http://www.w3.org/2000/svg">
<path d="M4.64416 30.528C4.55307 30.6222 4.46946 30.72 4.39333 30.8213C4.32435 30.9077 4.25538 30.9941 4.1864 31.0805C4.11354 31.1559 4.03678 31.2201 3.95613 31.2734C3.87548 31.3266 3.78153 31.3597 3.67426 31.3726C3.60794 31.396 3.53905 31.3767 3.46759 31.3149C3.39225 31.2421 3.32601 31.1598 3.26888 31.0681C3.19681 30.9692 3.13773 30.872 3.09166 30.7764C3.04169 30.6697 3.01251 30.5868 3.00411 30.5277L4.27483 29.0554L2.88008 24.7757C2.8516 24.6242 2.92057 24.5378 3.087 24.5165C3.24954 24.4841 3.42149 24.4609 3.60286 24.4467C3.62497 24.4389 3.66202 24.4383 3.71402 24.4448C3.77318 24.4364 3.81576 24.4339 3.84176 24.4372C3.92472 24.7434 4.01187 25.0792 4.10323 25.4446C4.20175 25.7951 4.30222 26.151 4.40463 26.5125C4.50315 26.863 4.60526 27.206 4.71094 27.5415C4.82768 27.8731 4.94932 28.1657 5.07587 28.4193L7.31784 26.8474C7.35816 26.8208 7.403 26.8423 7.45234 26.9119C7.50885 26.9665 7.56567 27.0397 7.6228 27.1314C7.69098 27.2192 7.74811 27.3109 7.79419 27.4065C7.84026 27.5021 7.8633 27.5499 7.8633 27.5499L5.46482 29.736C5.49985 29.8355 5.58903 30.0712 5.73239 30.4431C5.8868 30.8112 6.0665 31.2511 6.2715 31.7628C6.47261 32.2635 6.68928 32.8084 6.92151 33.3975C7.14985 33.9756 7.36458 34.515 7.56568 35.0157C7.76679 35.5164 7.94096 35.9582 8.08821 36.3412C8.23157 36.7131 8.32076 36.9489 8.35578 37.0483C8.45041 37.3877 8.40929 37.5886 8.23243 37.6508C8.06662 37.7092 7.85505 37.6905 7.59771 37.5947L4.64416 30.528ZM13.9155 34.7371C13.8019 34.5907 13.6165 34.3641 13.3593 34.057C13.1021 33.75 12.8128 33.4046 12.4914 33.0208C12.1699 32.637 11.8277 32.2295 11.4646 31.7982C11.1016 31.367 10.7594 30.9594 10.4379 30.5756C10.1165 30.1919 9.82715 29.8465 9.56998 29.5394C9.31282 29.2324 9.11994 29.0021 8.99136 28.8486C8.89002 28.7725 8.79031 28.6833 8.69224 28.5812C8.60133 28.4641 8.53447 28.3448 8.49166 28.2232C8.44497 28.0905 8.43175 27.9648 8.45199 27.8458C8.47224 27.7269 8.53538 27.6239 8.64141 27.5369C8.763 27.4941 8.88358 27.5013 9.00314 27.5586C9.12986 27.601 9.23478 27.6696 9.31791 27.7646L12.9466 31.9847C12.9032 31.826 12.8335 31.54 12.7376 31.1265C12.6379 30.7019 12.5303 30.2552 12.415 29.7865C12.2997 29.3177 12.1886 28.8785 12.0816 28.4689C11.9819 28.0443 11.9158 27.7508 11.8834 27.5883C11.8556 27.4738 11.8219 27.3428 11.7824 27.1952C11.7428 27.0476 11.7163 26.9017 11.7028 26.7574C11.7003 26.6092 11.7202 26.4717 11.7626 26.345C11.816 26.2143 11.9201 26.1218 12.0748 26.0673C12.1853 26.0284 12.2666 26.0122 12.3186 26.0188C12.3817 26.0214 12.4658 26.0663 12.571 26.1535L17.669 30.4713L15.6962 24.867C16.0167 24.7542 16.267 24.7593 16.447 24.8823C16.6341 24.9903 16.7796 25.1565 16.8834 25.3809C16.9983 25.6014 17.0858 25.8501 17.146 26.127C17.2063 26.404 17.2789 26.6455 17.3639 26.8517C17.3911 26.9291 17.455 27.0929 17.5556 27.3433C17.6561 27.5936 17.7703 27.8826 17.8981 28.2104C18.0369 28.5342 18.18 28.8876 18.3272 29.2706C18.4706 29.6425 18.6061 29.9924 18.7339 30.3201C18.8728 30.6439 18.9925 30.931 19.093 31.1814C19.1936 31.4317 19.2575 31.5956 19.2847 31.673C19.4399 31.8668 19.4869 32.018 19.4257 32.1265C19.3717 32.22 19.2689 32.2811 19.1175 32.3095C18.966 32.338 18.8009 32.3278 18.6222 32.2789C18.4434 32.23 18.3106 32.1525 18.2235 32.0465L12.8215 27.5003C13.3317 29.1967 13.7446 30.6167 14.0603 31.7604C14.3759 32.904 14.6348 33.8689 14.837 34.655C14.8466 34.7882 14.8147 34.874 14.7412 34.9123C14.6677 34.9506 14.5809 34.9687 14.4808 34.9667C14.3879 34.9497 14.2891 34.9162 14.1845 34.866C14.0799 34.8159 13.9902 34.7729 13.9155 34.7371ZM20.0854 29.0244C20.0341 29.0549 19.957 29.1006 19.8542 29.1617C19.7515 29.2227 19.6374 29.2691 19.5119 29.3008C19.3864 29.3326 19.2697 29.3364 19.1618 29.3122C19.0429 29.292 18.9601 29.2155 18.9134 29.0829C18.8861 29.0055 18.8833 28.9444 18.9047 28.8996C18.9262 28.8547 18.964 28.7855 19.018 28.692C19.1912 28.4074 19.3062 28.0812 19.363 27.7133C19.427 27.3305 19.4686 26.9369 19.4878 26.5326C19.5031 26.1172 19.5259 25.7055 19.5561 25.2973C19.5935 24.8741 19.6666 24.4819 19.7755 24.1205C19.8843 23.7592 20.0624 23.4356 20.3096 23.1498C20.5569 22.864 20.909 22.6469 21.3661 22.4984C21.554 22.4322 21.7796 22.4025 22.0429 22.4092C22.3062 22.4159 22.5645 22.4616 22.818 22.5463C23.0675 22.62 23.2956 22.7385 23.5022 22.9018C23.7087 23.0652 23.8568 23.2739 23.9463 23.5282C24.0327 23.5972 24.0222 23.7437 23.9147 23.9679C23.8183 24.1882 23.667 24.4465 23.4607 24.7427C23.2505 25.0279 23.0055 25.3378 22.7257 25.6723C22.4531 25.9919 22.1876 26.2966 21.9293 26.5863C21.671 26.876 21.4436 27.13 21.2471 27.3482C21.0506 27.5665 20.9254 27.7224 20.8713 27.8159C20.855 27.9459 20.8555 28.0886 20.873 28.244C20.8904 28.3994 20.9114 28.5473 20.936 28.6877C20.9677 28.8132 20.9975 28.9331 21.0254 29.0476C21.0604 29.147 21.0876 29.2244 21.1071 29.2797C21.181 29.4897 21.2517 29.7257 21.3191 29.9878C21.3975 30.2459 21.4942 30.4852 21.6091 30.7056C21.7311 30.9111 21.8912 31.066 22.0894 31.1702C22.2837 31.2633 22.5522 31.2495 22.8948 31.1289C23.2596 31.0005 23.5711 30.7914 23.8294 30.5017C24.0839 30.2009 24.3025 29.8693 24.4855 29.5067C24.6684 29.1441 24.816 28.7692 24.9281 28.3818C25.0513 27.9906 25.1546 27.6312 25.2381 27.3037C25.3287 26.9612 25.4148 26.6762 25.4962 26.4488C25.5776 26.2213 25.6681 26.0901 25.7676 26.0551C25.8781 26.0161 26.002 25.9974 26.1391 25.9988C26.2834 25.9853 26.3809 26.0504 26.4315 26.1941C26.5015 26.393 26.5023 26.6599 26.4338 26.9946C26.3763 27.3254 26.2694 27.6923 26.113 28.0952C25.9678 28.4942 25.7783 28.9087 25.5445 29.3389C25.318 29.7541 25.0762 30.1436 24.8191 30.5074C24.5582 30.8601 24.2891 31.1723 24.012 31.4438C23.731 31.7042 23.4633 31.8792 23.2091 31.9687C22.7117 32.1438 22.293 32.1545 21.9532 32.0008C21.6133 31.8471 21.3239 31.6073 21.085 31.2815C20.8571 30.9517 20.6656 30.5843 20.5106 30.1792C20.3627 29.7591 20.221 29.3742 20.0854 29.0244ZM21.5603 23.4736C21.3724 23.5397 21.2065 23.7037 21.0627 23.9656C20.9149 24.2164 20.7938 24.5075 20.6992 24.8389C20.6119 25.1554 20.556 25.4733 20.5317 25.7924C20.5146 26.0966 20.5371 26.3371 20.5994 26.514C20.7652 26.4556 20.9815 26.3112 21.2482 26.0806C21.522 25.8351 21.7806 25.564 22.024 25.2671C22.2673 24.9702 22.4681 24.6759 22.6263 24.3842C22.7845 24.0924 22.8305 23.8526 22.7644 23.6647C22.7294 23.5652 22.6615 23.4959 22.5608 23.4568C22.46 23.4178 22.3466 23.3956 22.2205 23.3903C22.1055 23.3811 21.9888 23.3849 21.8705 23.4017C21.7522 23.4185 21.6488 23.4425 21.5603 23.4736ZM27.9281 26.2635C27.8768 26.294 27.7997 26.3398 27.6969 26.4008C27.5942 26.4618 27.4801 26.5082 27.3546 26.54C27.2291 26.5717 27.1124 26.5755 27.0045 26.5514C26.8856 26.5312 26.8028 26.4547 26.7561 26.3221C26.7288 26.2447 26.726 26.1836 26.7474 26.1387C26.7689 26.0939 26.8067 26.0247 26.8607 25.9311C27.0339 25.6466 27.1489 25.3203 27.2057 24.9525C27.2697 24.5696 27.3113 24.1761 27.3305 23.7718C27.3458 23.3564 27.3686 22.9446 27.3988 22.5364C27.4362 22.1133 27.5093 21.721 27.6182 21.3597C27.727 20.9984 27.9051 20.6748 28.1523 20.389C28.3996 20.1032 28.7517 19.886 29.2088 19.7375C29.3967 19.6714 29.6223 19.6417 29.8856 19.6484C30.1489 19.6551 30.4072 19.7008 30.6607 19.7855C30.9102 19.8592 31.1383 19.9777 31.3449 20.141C31.5514 20.3043 31.6995 20.5131 31.789 20.7673C31.8754 20.8363 31.8649 20.9829 31.7574 21.2071C31.661 21.4273 31.5097 21.6856 31.3034 21.9819C31.0932 22.2671 30.8482 22.5769 30.5684 22.9115C30.2958 23.2311 30.0303 23.5357 29.772 23.8254C29.5137 24.1151 29.2863 24.3691 29.0898 24.5874C28.8933 24.8056 28.7681 24.9615 28.714 25.0551C28.6977 25.1851 28.6982 25.3278 28.7156 25.4832C28.7331 25.6385 28.7541 25.7864 28.7787 25.9269C28.8104 26.0523 28.8402 26.1723 28.8681 26.2867C28.9031 26.3862 28.9303 26.4636 28.9498 26.5189C29.0237 26.7289 29.0944 26.9649 29.1618 27.2269C29.2402 27.485 29.3369 27.7243 29.4518 27.9448C29.5738 28.1503 29.7339 28.3051 29.9321 28.4093C30.1264 28.5024 30.3949 28.4887 30.7375 28.368C31.1023 28.2396 31.4138 28.0306 31.6721 27.7409C31.9266 27.4401 32.1452 27.1084 32.3282 26.7459C32.5111 26.3833 32.6587 26.0083 32.7708 25.621C32.894 25.2298 32.9973 24.8704 33.0808 24.5428C33.1714 24.2003 33.2574 23.9154 33.3389 23.6879C33.4203 23.4605 33.5108 23.3292 33.6103 23.2942C33.7208 23.2553 33.8447 23.2366 33.9818 23.238C34.1261 23.2244 34.2236 23.2895 34.2742 23.4332C34.3442 23.6322 34.345 23.899 34.2765 24.2337C34.219 24.5646 34.1121 24.9314 33.9557 25.3343C33.8105 25.7333 33.621 26.1479 33.3872 26.578C33.1607 26.9932 32.9189 27.3827 32.6618 27.7465C32.4009 28.0993 32.1318 28.4114 31.8547 28.6829C31.5737 28.9434 31.306 29.1183 31.0518 29.2078C30.5544 29.3829 30.1357 29.3936 29.7959 29.24C29.456 29.0863 29.1666 28.8465 28.9277 28.5206C28.6998 28.1909 28.5083 27.8234 28.3533 27.4183C28.2054 26.9983 28.0637 26.6134 27.9281 26.2635ZM29.403 20.7127C29.2151 20.7789 29.0492 20.9429 28.9054 21.2047C28.7576 21.4555 28.6365 21.7467 28.5419 22.0781C28.4546 22.3946 28.3987 22.7124 28.3744 23.0316C28.3573 23.3358 28.3798 23.5763 28.4421 23.7532C28.6079 23.6948 28.8242 23.5503 29.0909 23.3198C29.3647 23.0743 29.6233 22.8031 29.8667 22.5063C30.11 22.2094 30.3108 21.9151 30.469 21.6233C30.6272 21.3316 30.6732 21.0918 30.6071 20.9039C30.5721 20.8044 30.5042 20.7351 30.4035 20.696C30.3027 20.6569 30.1893 20.6347 30.0632 20.6294C29.9482 20.6202 29.8315 20.624 29.7132 20.6408C29.5949 20.6576 29.4915 20.6816 29.403 20.7127ZM34.5061 20.0158C34.415 20.11 34.3314 20.2078 34.2553 20.3091C34.1863 20.3955 34.1173 20.4819 34.0483 20.5683C33.9755 20.6437 33.8987 20.708 33.8181 20.7612C33.7374 20.8144 33.6435 20.8475 33.5362 20.8604C33.4699 20.8838 33.401 20.8645 33.3295 20.8027C33.2542 20.7299 33.188 20.6476 33.1308 20.5559C33.0588 20.457 32.9997 20.3598 32.9536 20.2642C32.9036 20.1575 32.8745 20.0746 32.866 20.0155L34.1368 18.5432L32.742 14.2635C32.7135 14.112 32.7825 14.0256 32.9489 14.0043C33.1115 13.9719 33.2834 13.9487 33.4648 13.9345C33.4869 13.9267 33.524 13.9261 33.576 13.9327C33.6351 13.9242 33.6777 13.9217 33.7037 13.925C33.7867 14.2312 33.8738 14.567 33.9652 14.9324C34.0637 15.2829 34.1642 15.6388 34.2666 16.0003C34.3651 16.3508 34.4672 16.6938 34.5729 17.0293C34.6896 17.3609 34.8113 17.6535 34.9378 17.9071L37.1798 16.3352C37.2201 16.3086 37.2649 16.3301 37.3143 16.3997C37.3708 16.4543 37.4276 16.5275 37.4847 16.6192C37.5529 16.707 37.6101 16.7987 37.6561 16.8943C37.7022 16.9899 37.7252 17.0377 37.7252 17.0377L35.3268 19.2238C35.3618 19.3233 35.451 19.559 35.5943 19.9309C35.7487 20.299 35.9284 20.7389 36.1334 21.2506C36.3345 21.7513 36.5512 22.2962 36.7835 22.8853C37.0118 23.4634 37.2265 24.0028 37.4276 24.5035C37.6287 25.0042 37.8029 25.446 37.9502 25.829C38.0935 26.2009 38.1827 26.4367 38.2177 26.5361C38.3123 26.8755 38.2712 27.0764 38.0944 27.1386C37.9286 27.197 37.717 27.1783 37.4597 27.0825L34.5061 20.0158ZM49.3747 22.4968C48.7278 21.0473 48.0919 19.594 47.4671 18.1367C46.8495 16.6645 46.2013 15.1409 45.5227 13.566C45.4293 13.3007 45.5263 13.1175 45.8137 13.0163L45.9463 12.9696C45.9795 12.9579 46.0338 12.9885 46.1091 13.0614C46.1845 13.1343 46.287 13.2845 46.4169 13.5121C46.5538 13.7248 46.7356 14.0646 46.9621 14.5315C47.1957 14.9835 47.4929 15.5808 47.8538 16.3234C48.2146 17.066 48.6545 17.9982 49.1737 19.12C49.1412 18.2866 49.0668 17.4928 48.9504 16.7387C48.834 15.9846 48.7796 15.2831 48.7873 14.6344C48.7911 13.9746 48.9031 13.3575 49.1232 12.783C49.3545 12.2047 49.7924 11.684 50.4369 11.2211C50.8582 11.1473 51.2644 11.2777 51.6555 11.6121C52.0426 11.9355 52.4151 12.3759 52.7728 12.9332C53.1305 13.4906 53.4634 14.1188 53.7716 14.8179C54.076 15.5058 54.3484 16.174 54.5891 16.8223C54.8297 17.4706 55.0415 18.0545 55.2244 18.574C55.4034 19.0825 55.5428 19.4434 55.6427 19.6566C55.6407 19.7568 55.6182 19.8516 55.5752 19.9413C55.5323 20.031 55.4724 20.108 55.3956 20.1723C55.326 20.2216 55.2506 20.2544 55.1693 20.2706C55.0842 20.2757 54.9909 20.2402 54.8896 20.164C54.8468 20.0425 54.7482 19.7976 54.5938 19.4296C54.4394 19.0615 54.258 18.6346 54.0498 18.1489C53.8376 17.6521 53.6102 17.1296 53.3675 16.5814C53.132 16.0183 52.9101 15.4938 52.7019 15.0081C52.5007 14.5074 52.323 14.073 52.1686 13.705C52.0142 13.3369 51.91 13.0941 51.8562 12.9764C51.4801 12.6491 51.1662 12.4987 50.9146 12.5251C50.6741 12.5477 50.4728 12.6993 50.3107 12.98C50.1597 13.2568 50.0511 13.6366 49.9851 14.1196C49.919 14.6025 49.8835 15.1368 49.8785 15.7225C49.8696 16.2971 49.8814 16.8955 49.9141 17.5176C49.9467 18.1397 49.9956 18.7374 50.0608 19.3108C50.1221 19.8732 50.1844 20.3855 50.2478 20.8477C50.3182 21.295 50.3833 21.6386 50.4429 21.8785C50.437 21.9675 50.3924 22.0702 50.3091 22.1865C50.2329 22.2878 50.1399 22.3765 50.03 22.4525C49.9311 22.5245 49.8189 22.5764 49.6935 22.6082C49.5751 22.625 49.4689 22.5879 49.3747 22.4968ZM56.1454 17.8025C55.8891 17.3213 55.6772 16.843 55.5099 16.3677C55.3387 15.8813 55.1932 15.3797 55.0733 14.8628C54.9645 14.342 54.872 13.7969 54.7958 13.2274C54.7267 12.643 54.6606 12.014 54.5974 11.3405C54.5546 11.2189 54.5489 11.0967 54.5802 10.9739C54.6076 10.84 54.6649 10.7204 54.7521 10.6152C54.8354 10.4989 54.93 10.3972 55.0361 10.3102C55.1421 10.2232 55.2504 10.1602 55.3609 10.1213C55.6041 10.0357 55.8524 10.0353 56.1059 10.12C56.3593 10.2047 56.6023 10.3303 56.8349 10.4969C57.0785 10.6596 57.3004 10.8487 57.5004 11.064C57.7076 11.2644 57.881 11.4394 58.0207 11.589C58.2453 11.9447 58.4617 12.3655 58.67 12.8512C58.8854 13.3221 59.0661 13.8175 59.2119 14.3377C59.3577 14.8578 59.4574 15.388 59.5109 15.9282C59.5605 16.4574 59.5468 16.9654 59.4697 17.4522C59.3926 17.939 59.2258 18.3829 58.9694 18.7838C58.724 19.1807 58.3753 19.496 57.9234 19.7297C57.6691 19.8192 57.4465 19.8044 57.2555 19.6853C57.0606 19.5551 56.8872 19.3801 56.7352 19.1603C56.5905 18.9255 56.4678 18.6829 56.3672 18.4326C56.2777 18.1783 56.2038 17.9683 56.1454 17.8025ZM56.9735 17.4551C57.0125 17.5656 57.0494 17.6706 57.0844 17.7701C57.1305 17.8657 57.1766 17.9613 57.2227 18.0569C57.2759 18.1375 57.333 18.2292 57.3941 18.332C57.4622 18.4198 57.5418 18.5222 57.6327 18.6393L57.7322 18.6043C57.9975 18.5109 58.1929 18.3427 58.3186 18.0997C58.4443 17.8567 58.5248 17.5737 58.5601 17.2506C58.5916 16.9165 58.5912 16.5626 58.559 16.1888C58.523 15.8039 58.4687 15.4379 58.3961 15.0907C58.3308 14.7286 58.253 14.4019 58.1629 14.1106C58.08 13.8044 58.0074 13.5628 57.9451 13.386L57.8284 13.0544C57.7778 12.9107 57.7158 12.7523 57.6425 12.5793C57.5653 12.3953 57.477 12.2152 57.3777 12.0389C57.2856 11.8478 57.1846 11.6845 57.0749 11.5492C56.9612 11.4029 56.8427 11.2955 56.7192 11.2272C56.5958 11.1588 56.4622 11.1499 56.3185 11.2005C56.0481 11.2087 55.8439 11.2993 55.706 11.4721C55.5791 11.641 55.507 11.8775 55.4899 12.1817C55.4799 12.471 55.5134 12.8133 55.5905 13.2085C55.6675 13.6038 55.7803 14.03 55.9287 14.4871C56.0772 14.9442 56.241 15.427 56.42 15.9355C56.61 16.4401 56.7945 16.9466 56.9735 17.4551ZM64.1552 17.0514C64.0415 16.905 63.8561 16.6783 63.599 16.3713C63.3418 16.0643 63.0525 15.7189 62.731 15.3351C62.4096 14.9513 62.0673 14.5438 61.7043 14.1125C61.3413 13.6812 60.9991 13.2737 60.6776 12.8899C60.3562 12.5061 60.0668 12.1607 59.8097 11.8537C59.5525 11.5467 59.3596 11.3164 59.2311 11.1629C59.1297 11.0868 59.03 10.9976 58.9319 10.8955C58.841 10.7784 58.7742 10.6591 58.7314 10.5375C58.6847 10.4048 58.6714 10.279 58.6917 10.1601C58.7119 10.0412 58.7751 9.93818 58.8811 9.85116C59.0027 9.80836 59.1233 9.81561 59.2428 9.87291C59.3696 9.91526 59.4745 9.98393 59.5576 10.0789L63.1863 14.299C63.1428 14.1403 63.0732 13.8543 62.9773 13.4408C62.8776 13.0162 62.77 12.5695 62.6547 12.1008C62.5394 11.632 62.4282 11.1928 62.3213 10.7832C62.2216 10.3586 62.1555 10.0651 62.1231 9.90255C62.0953 9.78812 62.0616 9.65711 62.022 9.50952C61.9825 9.36193 61.956 9.21597 61.9424 9.07165C61.94 8.92344 61.9599 8.78598 62.0023 8.65925C62.0557 8.52864 62.1597 8.43609 62.3145 8.38162C62.425 8.3427 62.5063 8.32652 62.5583 8.33306C62.6214 8.33571 62.7055 8.38063 62.8107 8.46782L67.9087 12.7856L65.9359 7.18134C66.2564 7.06849 66.5067 7.07357 66.6867 7.19657C66.8738 7.30463 67.0193 7.47084 67.1231 7.69519C67.238 7.91564 67.3255 8.16435 67.3857 8.44132C67.446 8.71829 67.5186 8.95983 67.6036 9.16597C67.6308 9.24334 67.6947 9.4072 67.7952 9.65755C67.8958 9.9079 68.01 10.1969 68.1378 10.5247C68.2766 10.8485 68.4197 11.2019 68.5669 11.5849C68.7103 11.9568 68.8458 12.3067 68.9736 12.6344C69.1125 12.9582 69.2322 13.2453 69.3327 13.4957C69.4333 13.746 69.4972 13.9099 69.5244 13.9872C69.6796 14.1811 69.7266 14.3323 69.6654 14.4408C69.6114 14.5343 69.5086 14.5953 69.3572 14.6238C69.2057 14.6523 69.0406 14.6421 68.8618 14.5932C68.6831 14.5443 68.5503 14.4668 68.4632 14.3608L63.0612 9.81459C63.5714 11.511 63.9843 12.931 64.3 14.0747C64.6156 15.2183 64.8745 16.1832 65.0767 16.9693C65.0863 17.1025 65.0544 17.1883 64.9809 17.2266C64.9074 17.2649 64.8206 17.283 64.7205 17.281C64.6276 17.264 64.5288 17.2305 64.4242 17.1803C64.3196 17.1302 64.2299 17.0872 64.1552 17.0514ZM68.1016 7.03392C67.7436 6.01696 67.4116 5.00328 67.1056 3.99287C66.7957 2.97141 66.4872 1.91842 66.1799 0.833901C66.182 0.733796 66.2012 0.664908 66.2376 0.627235C66.2702 0.578509 66.3251 0.540526 66.4025 0.513287C66.513 0.474375 66.6021 0.480298 66.6697 0.531056C66.7333 0.57076 66.7843 0.627355 66.8226 0.70084C66.8719 0.770435 66.9086 0.85692 66.9326 0.960296C66.9637 1.04873 66.9909 1.1261 67.0143 1.19243L68.8004 6.26614C68.8704 6.46511 68.9609 6.66929 69.0719 6.8787L69.4049 7.5069C69.5269 7.71242 69.6285 7.91271 69.7096 8.10779C69.7978 8.28792 69.8432 8.45209 69.8457 8.6003C69.8664 8.72968 69.837 8.85804 69.7576 8.98538C69.6893 9.10883 69.5943 9.19196 69.4727 9.23477C69.2737 9.30481 69.1005 9.25396 68.9531 9.08223C68.8057 8.9105 68.6742 8.69588 68.5587 8.43837C68.4543 8.17697 68.3609 7.91168 68.2786 7.6425C68.2073 7.36942 68.1483 7.16656 68.1016 7.03392ZM71.8603 14.3762L71.7669 14.111C71.7475 14.0557 71.7336 13.9985 71.7252 13.9393C71.7129 13.8691 71.7155 13.806 71.7331 13.7502C71.7507 13.6943 71.7927 13.6546 71.859 13.6313C72.0801 13.5535 72.2266 13.564 72.2987 13.6629C72.3779 13.7468 72.4429 13.8606 72.4934 14.0043C72.5479 14.159 72.5706 14.2939 72.5614 14.409C72.5632 14.5202 72.4536 14.6146 72.2325 14.6925C72.1662 14.7158 72.1087 14.7112 72.06 14.6787C72.0112 14.6461 71.9716 14.6042 71.9411 14.5528C71.9067 14.4904 71.8798 14.4315 71.8603 14.3762Z" fill="#193766"/>
</svg>
