<svg width="46" height="42" viewBox="0 0 46 42" fill="none" xmlns="http://www.w3.org/2000/svg">
<g filter="url(#filter0_d_4620_112)">
<path d="M4.30504 29.0049C4.58777 29.0053 4.86778 28.9498 5.12899 28.8416C5.3902 28.7334 5.62746 28.5747 5.82713 28.3745L17.9375 16.264L22.8729 21.1995C23.0728 21.3994 23.3101 21.558 23.5713 21.6661C23.8324 21.7743 24.1124 21.83 24.395 21.83C24.6777 21.83 24.9576 21.7743 25.2188 21.6661C25.4799 21.558 25.7172 21.3994 25.9171 21.1995L39.4617 7.65491L39.4609 12.5024C39.4609 13.0733 39.6877 13.6208 40.0914 14.0245C40.495 14.4281 41.0425 14.6549 41.6134 14.6549C42.1843 14.6549 42.7318 14.4281 43.1355 14.0245C43.5391 13.6208 43.7659 13.0733 43.7659 12.5024L43.7675 2.45743C43.7675 1.88655 43.5407 1.33906 43.1371 0.935384C42.7334 0.531712 42.1859 0.304932 41.615 0.304932H31.57C30.9991 0.304932 30.4517 0.531712 30.048 0.935384C29.6443 1.33906 29.4175 1.88655 29.4175 2.45743C29.4175 3.02831 29.6443 3.57581 30.048 3.97948C30.4517 4.38315 30.9991 4.60993 31.57 4.60993H36.4184L24.395 16.6333L19.4596 11.6978C19.2597 11.4979 19.0224 11.3394 18.7613 11.2312C18.5001 11.123 18.2202 11.0673 17.9375 11.0673C17.6549 11.0673 17.3749 11.123 17.1138 11.2312C16.8526 11.3394 16.6153 11.4979 16.4154 11.6978L2.78296 25.3303C2.48191 25.6314 2.27689 26.0149 2.19383 26.4325C2.11077 26.85 2.1534 27.2828 2.31632 27.6762C2.47924 28.0695 2.75515 28.4057 3.10914 28.6422C3.46313 28.8787 3.87931 29.0049 4.30504 29.0049V29.0049Z" fill="white"/>
<path d="M41.6151 33.3098H4.30509C3.73421 33.3098 3.18671 33.5366 2.78304 33.9403C2.37937 34.3439 2.15259 34.8914 2.15259 35.4623C2.15259 36.0332 2.37937 36.5807 2.78304 36.9844C3.18671 37.388 3.73421 37.6148 4.30509 37.6148H41.6151C42.1859 37.6148 42.7334 37.388 43.1371 36.9844C43.5408 36.5807 43.7676 36.0332 43.7676 35.4623C43.7676 34.8914 43.5408 34.3439 43.1371 33.9403C42.7334 33.5366 42.1859 33.3098 41.6151 33.3098Z" fill="white"/>
</g>
<defs>
<filter id="filter0_d_4620_112" x="-1.84753" y="0.304932" width="49.6151" height="45.3098" filterUnits="userSpaceOnUse" color-interpolation-filters="sRGB">
<feFlood flood-opacity="0" result="BackgroundImageFix"/>
<feColorMatrix in="SourceAlpha" type="matrix" values="0 0 0 0 0 0 0 0 0 0 0 0 0 0 0 0 0 0 127 0" result="hardAlpha"/>
<feOffset dy="4"/>
<feGaussianBlur stdDeviation="2"/>
<feComposite in2="hardAlpha" operator="out"/>
<feColorMatrix type="matrix" values="0 0 0 0 0 0 0 0 0 0 0 0 0 0 0 0 0 0 0.25 0"/>
<feBlend mode="normal" in2="BackgroundImageFix" result="effect1_dropShadow_4620_112"/>
<feBlend mode="normal" in="SourceGraphic" in2="effect1_dropShadow_4620_112" result="shape"/>
</filter>
</defs>
</svg>
