<svg width="619" height="397" viewBox="0 0 619 397" fill="none" xmlns="http://www.w3.org/2000/svg">
<g filter="url(#filter0_d_4621_20)">
<path d="M121.909 65.2819C121.909 55.3407 129.968 47.2819 139.909 47.2819H478.977C488.918 47.2819 496.977 55.3407 496.977 65.2819V168.959C496.977 178.9 488.918 186.959 478.977 186.959H160.416C156.373 186.959 152.47 188.438 149.443 191.116L143.267 196.58C134.976 203.915 121.909 198.029 121.909 186.959V65.2819Z" fill="white"/>
</g>
<rect x="391.489" y="60.0855" width="82.0461" height="32.5913" rx="7.03252" fill="#3ADAD9"/>
<path d="M409.632 68.53H414.354C416.599 68.53 418.333 69.141 419.555 70.3631C420.79 71.5719 421.408 73.2988 421.408 75.5438C421.408 77.7887 420.79 79.5222 419.555 80.7443C418.333 81.9664 416.599 82.5775 414.354 82.5775H409.632V68.53ZM414.255 81.1827C417.894 81.1827 419.714 79.303 419.714 75.5438C419.714 71.7978 417.894 69.9248 414.255 69.9248H411.266V81.1827H414.255ZM428.148 82.7169C427.231 82.7169 426.421 82.511 425.717 82.0992C425.026 81.6874 424.488 81.103 424.103 80.3458C423.731 79.5753 423.545 78.6853 423.545 77.6758C423.545 76.6662 423.731 75.7829 424.103 75.0257C424.488 74.2552 425.026 73.6641 425.717 73.2523C426.421 72.8405 427.231 72.6346 428.148 72.6346C429.064 72.6346 429.875 72.8405 430.579 73.2523C431.283 73.6641 431.821 74.2552 432.193 75.0257C432.578 75.7829 432.771 76.6662 432.771 77.6758C432.771 78.6853 432.578 79.5753 432.193 80.3458C431.821 81.103 431.283 81.6874 430.579 82.0992C429.875 82.511 429.064 82.7169 428.148 82.7169ZM428.148 81.3819C429.104 81.3819 429.835 81.0698 430.34 80.4454C430.858 79.8078 431.117 78.8846 431.117 77.6758C431.117 76.4935 430.858 75.5836 430.34 74.946C429.822 74.2951 429.091 73.9696 428.148 73.9696C427.205 73.9696 426.474 74.2951 425.956 74.946C425.438 75.5836 425.179 76.4935 425.179 77.6758C425.179 78.8713 425.431 79.7879 425.936 80.4255C426.454 81.0631 427.191 81.3819 428.148 81.3819ZM440.057 72.6346C442.382 72.6346 443.544 73.9165 443.544 76.4803V82.5775H441.93V76.5799C441.93 75.6766 441.751 75.0191 441.392 74.6073C441.047 74.1955 440.489 73.9896 439.718 73.9896C438.828 73.9896 438.118 74.2619 437.586 74.8065C437.055 75.3511 436.789 76.0884 436.789 77.0182V82.5775H435.175V72.8737H436.769V74.4678C437.088 73.87 437.533 73.4184 438.104 73.1129C438.676 72.794 439.326 72.6346 440.057 72.6346ZM454.63 77.9747H447.536C447.589 79.1038 447.895 79.9606 448.453 80.5451C449.011 81.1163 449.801 81.4019 450.824 81.4019C451.953 81.4019 452.989 81.0166 453.932 80.2462L454.47 81.4218C454.045 81.8203 453.501 82.1391 452.836 82.3782C452.172 82.604 451.495 82.7169 450.804 82.7169C449.29 82.7169 448.094 82.2719 447.217 81.3819C446.354 80.4919 445.922 79.2632 445.922 77.6957C445.922 76.6994 446.115 75.8227 446.5 75.0655C446.885 74.2951 447.423 73.6973 448.114 73.2723C448.818 72.8472 449.615 72.6346 450.505 72.6346C451.794 72.6346 452.803 73.0597 453.534 73.9099C454.264 74.7467 454.63 75.9024 454.63 77.3769V77.9747ZM450.525 73.8899C449.675 73.8899 448.991 74.1556 448.473 74.687C447.968 75.2183 447.669 75.9688 447.576 76.9385H453.215C453.188 75.9556 452.943 75.205 452.478 74.687C452.013 74.1556 451.362 73.8899 450.525 73.8899Z" fill="white"/>
<path d="M149.233 102.529V89.3079H151.164V100.916H157.578V102.529H149.233ZM167.107 93.3774V102.529H165.269V101.048C164.981 101.573 164.581 101.973 164.069 102.248C163.569 102.523 163.006 102.66 162.381 102.66C160.156 102.66 159.043 101.435 159.043 98.9847V93.3774H160.937V98.9659C160.937 99.7035 161.087 100.247 161.387 100.597C161.687 100.948 162.15 101.123 162.775 101.123C163.512 101.123 164.1 100.885 164.538 100.41C164.988 99.9348 165.213 99.3035 165.213 98.5158V93.3774H167.107ZM173.771 102.66C172.845 102.66 172.039 102.467 171.351 102.079C170.676 101.691 170.151 101.148 169.776 100.447C169.414 99.7348 169.232 98.9034 169.232 97.9532C169.232 97.0031 169.42 96.1654 169.795 95.4403C170.182 94.7151 170.72 94.1525 171.408 93.7525C172.108 93.3524 172.92 93.1524 173.846 93.1524C174.483 93.1524 175.096 93.2586 175.683 93.4712C176.284 93.6837 176.771 93.9713 177.146 94.3338L176.565 95.6841C175.74 95.0089 174.883 94.6714 173.996 94.6714C173.121 94.6714 172.433 94.9589 171.933 95.534C171.445 96.0966 171.201 96.8968 171.201 97.9345C171.201 98.9597 171.445 99.7536 171.933 100.316C172.42 100.866 173.108 101.141 173.996 101.141C174.883 101.141 175.74 100.804 176.565 100.129L177.146 101.498C176.746 101.86 176.246 102.148 175.646 102.36C175.046 102.56 174.421 102.66 173.771 102.66ZM185.311 93.3962H187.206L181.748 105.905H179.835L181.429 102.304L177.585 93.3962H179.573L182.423 100.391L185.311 93.3962ZM202.775 89.3079H204.594V102.529H203.112L195.555 92.5523V102.529H193.736V89.3079H195.198L202.775 99.3035V89.3079ZM207.447 102.529V93.3774H209.341V102.529H207.447ZM207.316 89.2892H209.491V91.2583H207.316V89.2892ZM215.815 93.1524C217.04 93.1524 217.946 93.4587 218.534 94.0713C219.134 94.6839 219.434 95.6153 219.434 96.8655V102.529H217.615V101.01C217.378 101.548 217.021 101.96 216.546 102.248C216.084 102.523 215.54 102.66 214.915 102.66C214.315 102.66 213.764 102.542 213.264 102.304C212.764 102.054 212.37 101.71 212.083 101.273C211.808 100.835 211.67 100.347 211.67 99.8098C211.67 99.1472 211.839 98.6283 212.177 98.2533C212.527 97.8657 213.096 97.5907 213.883 97.4281C214.683 97.2656 215.777 97.1843 217.165 97.1843H217.596V96.6405C217.596 95.9404 217.446 95.434 217.146 95.1215C216.859 94.8089 216.384 94.6526 215.721 94.6526C214.683 94.6526 213.646 94.9714 212.608 95.6091L212.045 94.2776C212.533 93.94 213.121 93.6712 213.808 93.4712C214.508 93.2586 215.177 93.1524 215.815 93.1524ZM215.252 101.254C215.94 101.254 216.502 101.023 216.94 100.56C217.378 100.085 217.596 99.4785 217.596 98.7409V98.2533H217.259C216.284 98.2533 215.534 98.297 215.008 98.3846C214.483 98.4721 214.108 98.6221 213.883 98.8346C213.658 99.0347 213.546 99.3285 213.546 99.716C213.546 100.154 213.702 100.522 214.015 100.822C214.34 101.11 214.752 101.254 215.252 101.254ZM226.957 93.1524C229.145 93.1524 230.239 94.3838 230.239 96.8468V102.529H228.345V96.9405C228.345 96.1654 228.189 95.5966 227.876 95.234C227.576 94.8714 227.101 94.6901 226.451 94.6901C225.688 94.6901 225.076 94.9277 224.613 95.4028C224.151 95.8779 223.919 96.5155 223.919 97.3156V102.529H222.025V93.3774H223.882V94.8402C224.182 94.2901 224.601 93.8712 225.138 93.5837C225.676 93.2961 226.282 93.1524 226.957 93.1524ZM236.656 93.1524C237.881 93.1524 238.788 93.4587 239.375 94.0713C239.975 94.6839 240.275 95.6153 240.275 96.8655V102.529H238.456V101.01C238.219 101.548 237.862 101.96 237.387 102.248C236.925 102.523 236.381 102.66 235.756 102.66C235.156 102.66 234.606 102.542 234.106 102.304C233.605 102.054 233.212 101.71 232.924 101.273C232.649 100.835 232.512 100.347 232.512 99.8098C232.512 99.1472 232.68 98.6283 233.018 98.2533C233.368 97.8657 233.937 97.5907 234.724 97.4281C235.525 97.2656 236.619 97.1843 238.006 97.1843H238.438V96.6405C238.438 95.9404 238.288 95.434 237.988 95.1215C237.7 94.8089 237.225 94.6526 236.562 94.6526C235.525 94.6526 234.487 94.9714 233.449 95.6091L232.887 94.2776C233.374 93.94 233.962 93.6712 234.649 93.4712C235.35 93.2586 236.018 93.1524 236.656 93.1524ZM236.093 101.254C236.781 101.254 237.344 101.023 237.781 100.56C238.219 100.085 238.438 99.4785 238.438 98.7409V98.2533H238.1C237.125 98.2533 236.375 98.297 235.85 98.3846C235.325 98.4721 234.949 98.6221 234.724 98.8346C234.499 99.0347 234.387 99.3285 234.387 99.716C234.387 100.154 234.543 100.522 234.856 100.822C235.181 101.11 235.593 101.254 236.093 101.254Z" fill="#6C71A1"/>
<path d="M149.298 117.591H154.784C157.217 117.591 159.102 118.245 160.438 119.553C161.788 120.847 162.463 122.668 162.463 125.017C162.463 127.366 161.788 129.194 160.438 130.502C159.102 131.81 157.217 132.464 154.784 132.464H149.298V117.591ZM154.615 130.249C158.033 130.249 159.742 128.505 159.742 125.017C159.742 121.543 158.033 119.806 154.615 119.806H152.02V130.249H154.615ZM174.023 127.781H166.997C167.082 128.737 167.37 129.448 167.862 129.912C168.355 130.376 169.058 130.608 169.972 130.608C171.111 130.608 172.152 130.242 173.095 129.511L173.854 131.325C173.376 131.719 172.771 132.035 172.04 132.275C171.322 132.514 170.598 132.633 169.867 132.633C168.179 132.633 166.843 132.155 165.858 131.199C164.888 130.242 164.402 128.934 164.402 127.274C164.402 126.22 164.613 125.284 165.035 124.469C165.457 123.653 166.048 123.02 166.807 122.57C167.581 122.12 168.453 121.895 169.424 121.895C170.844 121.895 171.962 122.352 172.778 123.266C173.608 124.18 174.023 125.439 174.023 127.042V127.781ZM169.487 123.751C168.784 123.751 168.214 123.976 167.778 124.426C167.356 124.876 167.096 125.523 166.997 126.367H171.765C171.737 125.509 171.526 124.862 171.132 124.426C170.739 123.976 170.19 123.751 169.487 123.751ZM183.252 122.169H185.847L181.332 132.464H179.032L174.56 122.169H177.344L180.256 129.448L183.252 122.169ZM196.006 127.781H188.981C189.065 128.737 189.354 129.448 189.846 129.912C190.338 130.376 191.041 130.608 191.956 130.608C193.095 130.608 194.136 130.242 195.078 129.511L195.838 131.325C195.359 131.719 194.755 132.035 194.023 132.275C193.306 132.514 192.582 132.633 191.85 132.633C190.162 132.633 188.826 132.155 187.842 131.199C186.871 130.242 186.386 128.934 186.386 127.274C186.386 126.22 186.597 125.284 187.019 124.469C187.441 123.653 188.031 123.02 188.791 122.57C189.565 122.12 190.437 121.895 191.407 121.895C192.828 121.895 193.946 122.352 194.762 123.266C195.591 124.18 196.006 125.439 196.006 127.042V127.781ZM191.47 123.751C190.767 123.751 190.197 123.976 189.761 124.426C189.34 124.876 189.079 125.523 188.981 126.367H193.749C193.721 125.509 193.51 124.862 193.116 124.426C192.722 123.976 192.174 123.751 191.47 123.751ZM198.164 132.464V117.591H200.801V132.464H198.164ZM208.225 132.633C207.17 132.633 206.242 132.415 205.44 131.979C204.653 131.543 204.041 130.917 203.605 130.102C203.169 129.286 202.951 128.336 202.951 127.253C202.951 126.17 203.169 125.228 203.605 124.426C204.041 123.611 204.653 122.985 205.44 122.549C206.242 122.113 207.17 121.895 208.225 121.895C209.28 121.895 210.201 122.113 210.989 122.549C211.791 122.985 212.402 123.611 212.824 124.426C213.26 125.228 213.478 126.17 213.478 127.253C213.478 128.336 213.26 129.286 212.824 130.102C212.402 130.917 211.791 131.543 210.989 131.979C210.201 132.415 209.28 132.633 208.225 132.633ZM208.204 130.587C209.062 130.587 209.716 130.305 210.166 129.743C210.616 129.18 210.841 128.35 210.841 127.253C210.841 126.17 210.616 125.348 210.166 124.785C209.716 124.208 209.069 123.92 208.225 123.92C207.381 123.92 206.727 124.208 206.263 124.785C205.813 125.348 205.588 126.17 205.588 127.253C205.588 128.35 205.813 129.18 206.263 129.743C206.713 130.305 207.36 130.587 208.204 130.587ZM221.584 121.895C222.47 121.895 223.258 122.12 223.947 122.57C224.65 123.02 225.192 123.66 225.571 124.49C225.965 125.305 226.162 126.248 226.162 127.317C226.162 128.386 225.965 129.321 225.571 130.123C225.192 130.924 224.657 131.543 223.968 131.979C223.279 132.415 222.484 132.633 221.584 132.633C220.853 132.633 220.199 132.479 219.622 132.169C219.045 131.86 218.602 131.431 218.293 130.882V136.262H215.656V122.148H218.251V123.709C218.56 123.132 219.003 122.689 219.58 122.38C220.17 122.056 220.839 121.895 221.584 121.895ZM220.888 130.587C221.718 130.587 222.365 130.305 222.829 129.743C223.293 129.166 223.525 128.357 223.525 127.317C223.525 126.248 223.293 125.418 222.829 124.827C222.365 124.236 221.718 123.941 220.888 123.941C220.044 123.941 219.39 124.229 218.926 124.806C218.476 125.383 218.251 126.206 218.251 127.274C218.251 128.329 218.476 129.145 218.926 129.722C219.39 130.298 220.044 130.587 220.888 130.587ZM241.037 132.654C239.575 132.654 238.295 132.345 237.198 131.726C236.115 131.093 235.278 130.2 234.687 129.047C234.11 127.893 233.822 126.55 233.822 125.017C233.822 123.484 234.11 122.148 234.687 121.009C235.278 119.855 236.115 118.969 237.198 118.35C238.295 117.717 239.575 117.401 241.037 117.401C242.036 117.401 242.978 117.556 243.865 117.865C244.751 118.174 245.496 118.61 246.101 119.173L245.194 121.156C244.519 120.622 243.85 120.235 243.189 119.996C242.528 119.743 241.825 119.616 241.08 119.616C239.645 119.616 238.534 120.08 237.746 121.009C236.973 121.937 236.586 123.273 236.586 125.017C236.586 126.775 236.973 128.118 237.746 129.047C238.534 129.975 239.645 130.439 241.08 130.439C241.825 130.439 242.528 130.32 243.189 130.08C243.85 129.827 244.519 129.433 245.194 128.899L246.101 130.882C245.496 131.445 244.751 131.881 243.865 132.19C242.978 132.5 242.036 132.654 241.037 132.654ZM252.851 132.633C251.797 132.633 250.868 132.415 250.067 131.979C249.279 131.543 248.667 130.917 248.231 130.102C247.795 129.286 247.577 128.336 247.577 127.253C247.577 126.17 247.795 125.228 248.231 124.426C248.667 123.611 249.279 122.985 250.067 122.549C250.868 122.113 251.797 121.895 252.851 121.895C253.906 121.895 254.828 122.113 255.615 122.549C256.417 122.985 257.029 123.611 257.451 124.426C257.887 125.228 258.105 126.17 258.105 127.253C258.105 128.336 257.887 129.286 257.451 130.102C257.029 130.917 256.417 131.543 255.615 131.979C254.828 132.415 253.906 132.633 252.851 132.633ZM252.83 130.587C253.688 130.587 254.342 130.305 254.792 129.743C255.242 129.18 255.468 128.35 255.468 127.253C255.468 126.17 255.242 125.348 254.792 124.785C254.342 124.208 253.695 123.92 252.851 123.92C252.008 123.92 251.353 124.208 250.889 124.785C250.439 125.348 250.214 126.17 250.214 127.253C250.214 128.35 250.439 129.18 250.889 129.743C251.339 130.305 251.986 130.587 252.83 130.587ZM272.54 121.895C273.707 121.895 274.579 122.246 275.156 122.949C275.732 123.639 276.021 124.701 276.021 126.135V132.464H273.383V126.241C273.383 125.453 273.25 124.883 272.983 124.532C272.715 124.166 272.286 123.983 271.696 123.983C270.992 123.983 270.444 124.222 270.05 124.701C269.656 125.179 269.459 125.847 269.459 126.705V132.464H266.822V126.241C266.822 125.453 266.688 124.883 266.421 124.532C266.168 124.166 265.739 123.983 265.134 123.983C264.445 123.983 263.904 124.222 263.51 124.701C263.116 125.179 262.919 125.847 262.919 126.705V132.464H260.282V122.148H262.856V123.604C263.165 123.041 263.594 122.619 264.143 122.338C264.691 122.042 265.317 121.895 266.02 121.895C267.582 121.895 268.615 122.542 269.122 123.836C269.445 123.231 269.909 122.76 270.514 122.422C271.119 122.07 271.794 121.895 272.54 121.895ZM290.959 121.895C292.126 121.895 292.998 122.246 293.575 122.949C294.151 123.639 294.44 124.701 294.44 126.135V132.464H291.803V126.241C291.803 125.453 291.669 124.883 291.402 124.532C291.135 124.166 290.706 123.983 290.115 123.983C289.412 123.983 288.863 124.222 288.469 124.701C288.075 125.179 287.878 125.847 287.878 126.705V132.464H285.241V126.241C285.241 125.453 285.108 124.883 284.84 124.532C284.587 124.166 284.158 123.983 283.553 123.983C282.864 123.983 282.323 124.222 281.929 124.701C281.535 125.179 281.338 125.847 281.338 126.705V132.464H278.701V122.148H281.275V123.604C281.584 123.041 282.013 122.619 282.562 122.338C283.11 122.042 283.736 121.895 284.44 121.895C286.001 121.895 287.035 122.542 287.541 123.836C287.864 123.231 288.329 122.76 288.933 122.422C289.538 122.07 290.213 121.895 290.959 121.895ZM306.593 122.148V132.464H304.019V130.882C303.696 131.445 303.26 131.881 302.711 132.19C302.163 132.486 301.544 132.633 300.854 132.633C298.323 132.633 297.057 131.213 297.057 128.372V122.148H299.694V128.393C299.694 129.124 299.842 129.666 300.137 130.017C300.433 130.369 300.897 130.545 301.53 130.545C302.261 130.545 302.845 130.305 303.281 129.827C303.731 129.335 303.956 128.688 303.956 127.886V122.148H306.593ZM315.33 121.895C316.567 121.895 317.489 122.246 318.093 122.949C318.698 123.653 319.001 124.715 319.001 126.135V132.464H316.363V126.283C316.363 125.481 316.209 124.897 315.899 124.532C315.604 124.166 315.133 123.983 314.486 123.983C313.726 123.983 313.114 124.222 312.65 124.701C312.2 125.179 311.975 125.819 311.975 126.62V132.464H309.338V122.148H311.912V123.688C312.263 123.111 312.735 122.668 313.325 122.359C313.916 122.049 314.584 121.895 315.33 121.895ZM321.679 132.464V122.148H324.316V132.464H321.679ZM321.531 117.359H324.443V119.954H321.531V117.359ZM331.741 132.633C330.658 132.633 329.715 132.415 328.914 131.979C328.126 131.543 327.521 130.924 327.099 130.123C326.677 129.321 326.466 128.386 326.466 127.317C326.466 126.248 326.684 125.305 327.12 124.49C327.57 123.66 328.203 123.02 329.019 122.57C329.835 122.12 330.777 121.895 331.846 121.895C332.578 121.895 333.288 122.014 333.977 122.253C334.68 122.478 335.243 122.788 335.665 123.182L334.905 125.038C334.469 124.687 334.005 124.419 333.513 124.236C333.035 124.054 332.556 123.962 332.078 123.962C331.164 123.962 330.454 124.25 329.947 124.827C329.441 125.39 329.188 126.206 329.188 127.274C329.188 128.329 329.441 129.145 329.947 129.722C330.454 130.284 331.164 130.566 332.078 130.566C332.556 130.566 333.035 130.474 333.513 130.291C334.005 130.109 334.469 129.841 334.905 129.49L335.665 131.325C335.215 131.733 334.638 132.057 333.935 132.296C333.232 132.521 332.5 132.633 331.741 132.633ZM341.768 121.895C343.217 121.895 344.293 122.246 344.996 122.949C345.699 123.653 346.051 124.736 346.051 126.199V132.464H343.54V130.882C343.301 131.431 342.921 131.86 342.401 132.169C341.894 132.479 341.304 132.633 340.629 132.633C339.939 132.633 339.314 132.493 338.751 132.211C338.188 131.93 337.745 131.543 337.422 131.051C337.098 130.559 336.937 130.01 336.937 129.405C336.937 128.646 337.126 128.048 337.506 127.612C337.9 127.176 338.533 126.86 339.405 126.663C340.277 126.466 341.48 126.367 343.013 126.367H343.54V125.882C343.54 125.179 343.385 124.672 343.076 124.363C342.781 124.054 342.281 123.899 341.578 123.899C341.029 123.899 340.453 123.997 339.848 124.194C339.257 124.377 338.674 124.637 338.097 124.975L337.359 123.16C337.935 122.795 338.631 122.492 339.447 122.253C340.263 122.014 341.037 121.895 341.768 121.895ZM341.156 130.734C341.859 130.734 342.429 130.502 342.865 130.038C343.315 129.56 343.54 128.948 343.54 128.203V127.76H343.16C342.218 127.76 341.487 127.802 340.966 127.886C340.446 127.971 340.073 128.118 339.848 128.329C339.623 128.54 339.51 128.829 339.51 129.194C339.51 129.644 339.665 130.017 339.975 130.313C340.284 130.594 340.678 130.734 341.156 130.734ZM354.005 130.65C354.315 130.65 354.638 130.629 354.976 130.587L354.849 132.549C354.427 132.591 354.04 132.612 353.689 132.612C352.24 132.612 351.171 132.282 350.482 131.621C349.793 130.945 349.448 129.947 349.448 128.625V124.131H347.465V122.148H349.448V119.068H352.085V122.148H354.807V124.131H352.085V128.583C352.085 129.961 352.725 130.65 354.005 130.65ZM356.519 132.464V122.148H359.156V132.464H356.519ZM356.371 117.359H359.283V119.954H356.371V117.359ZM366.58 132.633C365.526 132.633 364.597 132.415 363.796 131.979C363.008 131.543 362.396 130.917 361.96 130.102C361.524 129.286 361.306 128.336 361.306 127.253C361.306 126.17 361.524 125.228 361.96 124.426C362.396 123.611 363.008 122.985 363.796 122.549C364.597 122.113 365.526 121.895 366.58 121.895C367.635 121.895 368.557 122.113 369.344 122.549C370.146 122.985 370.758 123.611 371.18 124.426C371.616 125.228 371.834 126.17 371.834 127.253C371.834 128.336 371.616 129.286 371.18 130.102C370.758 130.917 370.146 131.543 369.344 131.979C368.557 132.415 367.635 132.633 366.58 132.633ZM366.559 130.587C367.417 130.587 368.071 130.305 368.521 129.743C368.972 129.18 369.197 128.35 369.197 127.253C369.197 126.17 368.972 125.348 368.521 124.785C368.071 124.208 367.424 123.92 366.58 123.92C365.737 123.92 365.083 124.208 364.618 124.785C364.168 125.348 363.943 126.17 363.943 127.253C363.943 128.35 364.168 129.18 364.618 129.743C365.068 130.305 365.715 130.587 366.559 130.587ZM380.003 121.895C381.24 121.895 382.162 122.246 382.766 122.949C383.371 123.653 383.674 124.715 383.674 126.135V132.464H381.036V126.283C381.036 125.481 380.882 124.897 380.572 124.532C380.277 124.166 379.806 123.983 379.159 123.983C378.399 123.983 377.787 124.222 377.323 124.701C376.873 125.179 376.648 125.819 376.648 126.62V132.464H374.011V122.148H376.585V123.688C376.936 123.111 377.408 122.668 377.998 122.359C378.589 122.049 379.257 121.895 380.003 121.895ZM392.312 117.591H398.81C400.399 117.591 401.637 117.992 402.523 118.793C403.409 119.581 403.852 120.692 403.852 122.127C403.852 123.561 403.409 124.679 402.523 125.481C401.637 126.283 400.399 126.684 398.81 126.684H395.033V132.464H392.312V117.591ZM398.472 124.595C400.343 124.595 401.278 123.779 401.278 122.148C401.278 121.318 401.046 120.706 400.582 120.312C400.118 119.904 399.415 119.7 398.472 119.7H395.033V124.595H398.472ZM406.008 132.464V117.591H408.645V132.464H406.008ZM415.795 121.895C417.243 121.895 418.319 122.246 419.023 122.949C419.726 123.653 420.078 124.736 420.078 126.199V132.464H417.567V130.882C417.328 131.431 416.948 131.86 416.428 132.169C415.921 132.479 415.331 132.633 414.656 132.633C413.966 132.633 413.34 132.493 412.778 132.211C412.215 131.93 411.772 131.543 411.449 131.051C411.125 130.559 410.963 130.01 410.963 129.405C410.963 128.646 411.153 128.048 411.533 127.612C411.927 127.176 412.56 126.86 413.432 126.663C414.304 126.466 415.506 126.367 417.04 126.367H417.567V125.882C417.567 125.179 417.412 124.672 417.103 124.363C416.807 124.054 416.308 123.899 415.605 123.899C415.056 123.899 414.48 123.997 413.875 124.194C413.284 124.377 412.7 124.637 412.124 124.975L411.385 123.16C411.962 122.795 412.658 122.492 413.474 122.253C414.29 122.014 415.063 121.895 415.795 121.895ZM415.183 130.734C415.886 130.734 416.456 130.502 416.892 130.038C417.342 129.56 417.567 128.948 417.567 128.203V127.76H417.187C416.245 127.76 415.513 127.802 414.993 127.886C414.473 127.971 414.1 128.118 413.875 128.329C413.65 128.54 413.537 128.829 413.537 129.194C413.537 129.644 413.692 130.017 414.001 130.313C414.311 130.594 414.705 130.734 415.183 130.734ZM428.75 121.895C429.987 121.895 430.909 122.246 431.513 122.949C432.118 123.653 432.42 124.715 432.42 126.135V132.464H429.783V126.283C429.783 125.481 429.629 124.897 429.319 124.532C429.024 124.166 428.553 123.983 427.906 123.983C427.146 123.983 426.534 124.222 426.07 124.701C425.62 125.179 425.395 125.819 425.395 126.62V132.464H422.758V122.148H425.332V123.688C425.683 123.111 426.155 122.668 426.745 122.359C427.336 122.049 428.004 121.895 428.75 121.895Z" fill="#2B3377"/>
<path d="M158.83 148.548L162.102 155.133L169.42 156.188L164.125 161.314L165.375 168.551L158.83 165.134L152.285 168.551L153.535 161.314L148.24 156.188L155.557 155.133L158.83 148.548Z" fill="#FFCD1A"/>
<path d="M182.272 148.548L185.544 155.133L192.861 156.188L187.566 161.314L188.816 168.551L182.272 165.134L175.727 168.551L176.977 161.314L171.682 156.188L178.999 155.133L182.272 148.548Z" fill="#FFCD1A"/>
<path d="M205.713 148.548L208.986 155.133L216.303 156.188L211.008 161.314L212.258 168.551L205.713 165.134L199.168 168.551L200.418 161.314L195.123 156.188L202.441 155.133L205.713 148.548Z" fill="#FFCD1A"/>
<path d="M229.155 148.548L232.427 155.133L239.745 156.188L234.45 161.314L235.7 168.551L229.155 165.134L222.61 168.551L223.86 161.314L218.565 156.188L225.882 155.133L229.155 148.548Z" fill="#FFCD1A"/>
<path d="M252.597 148.548L255.869 155.133L263.187 156.188L257.892 161.314L259.142 168.551L252.597 165.134L246.052 168.551L247.302 161.314L242.007 156.188L249.324 155.133L252.597 148.548Z" fill="#CCCCCC"/>
<circle opacity="0.6" cx="462.986" cy="169.179" r="12.893" stroke="#F8C953" stroke-width="2.34417"/>
<g filter="url(#filter1_d_4621_20)">
<path d="M459.066 208.72L451.576 198.862L444.684 209.873L436.804 204.869L443.564 193.889L431.604 191.109L465.169 168.343L459.066 208.72Z" fill="white"/>
<path d="M459.066 208.72L451.576 198.862L444.684 209.873L436.804 204.869L443.564 193.889L431.604 191.109L465.169 168.343L459.066 208.72Z" stroke="#F8C953" stroke-width="2.34417"/>
</g>
<defs>
<filter id="filter0_d_4621_20" x="0.0121613" y="0.398392" width="618.862" height="396.342" filterUnits="userSpaceOnUse" color-interpolation-filters="sRGB">
<feFlood flood-opacity="0" result="BackgroundImageFix"/>
<feColorMatrix in="SourceAlpha" type="matrix" values="0 0 0 0 0 0 0 0 0 0 0 0 0 0 0 0 0 0 127 0" result="hardAlpha"/>
<feOffset dy="75.0135"/>
<feGaussianBlur stdDeviation="60.9485"/>
<feColorMatrix type="matrix" values="0 0 0 0 0 0 0 0 0 0 0 0 0 0 0 0 0 0 0.05 0"/>
<feBlend mode="normal" in2="BackgroundImageFix" result="effect1_dropShadow_4621_20"/>
<feBlend mode="normal" in="SourceGraphic" in2="effect1_dropShadow_4621_20" result="shape"/>
</filter>
<filter id="filter1_d_4621_20" x="417.006" y="158.836" width="61.443" height="69.2105" filterUnits="userSpaceOnUse" color-interpolation-filters="sRGB">
<feFlood flood-opacity="0" result="BackgroundImageFix"/>
<feColorMatrix in="SourceAlpha" type="matrix" values="0 0 0 0 0 0 0 0 0 0 0 0 0 0 0 0 0 0 127 0" result="hardAlpha"/>
<feOffset dy="4.68835"/>
<feGaussianBlur stdDeviation="5.86043"/>
<feColorMatrix type="matrix" values="0 0 0 0 0.267483 0 0 0 0 0.281291 0 0 0 0 0.645833 0 0 0 0.4 0"/>
<feBlend mode="normal" in2="BackgroundImageFix" result="effect1_dropShadow_4621_20"/>
<feBlend mode="normal" in="SourceGraphic" in2="effect1_dropShadow_4621_20" result="shape"/>
</filter>
</defs>
</svg>
