<svg width="42" height="42" viewBox="0 0 42 42" fill="none" xmlns="http://www.w3.org/2000/svg">
<path d="M20.9907 41.9441C32.5732 41.9441 41.9627 32.5546 41.9627 20.972C41.9627 9.3895 32.5732 0 20.9907 0C9.40818 0 0.0186768 9.3895 0.0186768 20.972C0.0186768 32.5546 9.40818 41.9441 20.9907 41.9441Z" fill="#373C59"/>
<path d="M27.4992 13.041C27.2131 13.041 26.9335 13.1258 26.6956 13.2848C26.4578 13.4437 26.2725 13.6696 26.163 13.9339C26.0535 14.1982 26.0248 14.489 26.0806 14.7695C26.1364 15.0501 26.2742 15.3078 26.4764 15.5101C26.6787 15.7124 26.9365 15.8501 27.217 15.9059C27.4976 15.9617 27.7884 15.9331 28.0527 15.8236C28.317 15.7141 28.5428 15.5288 28.7018 15.2909C28.8607 15.0531 28.9455 14.7734 28.9455 14.4874C28.9455 14.1038 28.7931 13.7359 28.5219 13.4646C28.2506 13.1934 27.8828 13.041 27.4992 13.041Z" fill="white"/>
<path d="M21.0854 14.8896C19.8873 14.8896 18.716 15.2449 17.7197 15.9106C16.7235 16.5763 15.947 17.5224 15.4885 18.6294C15.03 19.7364 14.91 20.9544 15.1437 22.1296C15.3775 23.3047 15.9545 24.3842 16.8017 25.2314C17.6489 26.0786 18.7284 26.6556 19.9036 26.8894C21.0787 27.1231 22.2968 27.0031 23.4037 26.5446C24.5107 26.0861 25.4569 25.3096 26.1226 24.3134C26.7882 23.3171 27.1435 22.1459 27.1435 20.9477C27.1435 20.1522 26.9868 19.3644 26.6823 18.6294C26.3779 17.8944 25.9317 17.2266 25.3692 16.664C24.8066 16.1015 24.1387 15.6552 23.4037 15.3508C22.6687 15.0463 21.881 14.8896 21.0854 14.8896ZM21.0854 24.8244C20.3192 24.8221 19.5709 24.5927 18.9349 24.1653C18.299 23.7379 17.8039 23.1316 17.5123 22.4231C17.2207 21.7145 17.1456 20.9354 17.2966 20.1842C17.4475 19.4329 17.8176 18.7433 18.3602 18.2023C18.9029 17.6613 19.5937 17.2933 20.3453 17.1447C21.097 16.996 21.8759 17.0735 22.5835 17.3673C23.2912 17.661 23.896 18.1579 24.3215 18.7952C24.7469 19.4324 24.974 20.1815 24.974 20.9477C24.9709 21.977 24.5598 22.963 23.8309 23.6897C23.102 24.4163 22.1147 24.8244 21.0854 24.8244Z" fill="white"/>
<path d="M25.8986 33.2412H16.0824C15.1125 33.2412 14.152 33.0502 13.2559 32.679C12.3599 32.3078 11.5457 31.7638 10.8599 31.078C10.174 30.3921 9.62994 29.5779 9.25876 28.6818C8.88759 27.7857 8.69653 26.8253 8.69653 25.8554V16.0392C8.69653 14.0803 9.47473 12.2017 10.8599 10.8166C12.245 9.43147 14.1236 8.65332 16.0824 8.65332H25.8986C27.8574 8.65332 29.7361 9.43147 31.1212 10.8166C32.5063 12.2017 33.2844 14.0803 33.2844 16.0392V25.8554C33.2844 26.8253 33.0934 27.7857 32.7223 28.6818C32.3511 29.5779 31.807 30.3921 31.1212 31.078C30.4353 31.7638 29.6211 32.3078 28.725 32.679C27.8289 33.0502 26.8685 33.2412 25.8986 33.2412ZM16.0824 10.9651C14.7367 10.9651 13.4461 11.4997 12.4945 12.4513C11.5429 13.4028 11.0083 14.6934 11.0083 16.0392V25.8554C11.0052 26.5237 11.1342 27.1861 11.3878 27.8044C11.6414 28.4228 12.0146 28.9849 12.4861 29.4586C12.9576 29.9323 13.518 30.3082 14.1352 30.5647C14.7523 30.8211 15.4141 30.9532 16.0824 30.9531H25.8986C26.5649 30.9531 27.2247 30.8219 27.8403 30.5669C28.456 30.3119 29.0153 29.9382 29.4865 29.467C29.9577 28.9958 30.3314 28.4365 30.5864 27.8208C30.8414 27.2052 30.9727 26.5454 30.9727 25.8791V16.0392C30.9727 14.6934 30.4381 13.4028 29.4865 12.4513C28.5349 11.4997 27.2443 10.9651 25.8986 10.9651H16.0824Z" fill="white"/>
</svg>
