<svg width="50" height="50" viewBox="0 0 50 50" fill="none" xmlns="http://www.w3.org/2000/svg">
<g clip-path="url(#clip0_4620_96)">
<path d="M24.6 7.08685C23.7513 7.08685 23.0625 6.39805 23.0625 5.54935V1.5375C23.0625 0.6888 23.7513 0 24.6 0C25.4487 0 26.1375 0.6888 26.1375 1.5375V5.54935C26.1375 6.39805 25.4487 7.08685 24.6 7.08685Z" fill="white"/>
<path d="M38.0704 12.6669C37.6768 12.6669 37.2832 12.5173 36.9839 12.2159C36.3833 11.6153 36.3833 10.6415 36.9839 10.0409L39.8211 7.20366C40.4218 6.60301 41.3955 6.60301 41.9962 7.20366C42.5968 7.80431 42.5968 8.77806 41.9962 9.37871L39.159 12.2159C38.8576 12.5152 38.464 12.6669 38.0704 12.6669V12.6669Z" fill="white"/>
<path d="M47.6624 26.1375H43.6505C42.8018 26.1375 42.113 25.4487 42.113 24.6C42.113 23.7513 42.8018 23.0625 43.6505 23.0625H47.6624C48.5111 23.0625 49.1999 23.7513 49.1999 24.6C49.1999 25.4487 48.5111 26.1375 47.6624 26.1375Z" fill="white"/>
<path d="M40.9076 42.4452C40.514 42.4452 40.1204 42.2956 39.8211 41.9942L36.9839 39.157C36.3833 38.5564 36.3833 37.5826 36.9839 36.982C37.5846 36.3813 38.5583 36.3813 39.159 36.982L41.9962 39.8192C42.5968 40.4198 42.5968 41.3936 41.9962 41.9942C41.6948 42.2956 41.3012 42.4452 40.9076 42.4452Z" fill="white"/>
<path d="M8.29236 42.4452C7.89876 42.4452 7.50516 42.2956 7.20586 41.9942C6.60521 41.3936 6.60521 40.4198 7.20586 39.8192L10.0431 36.982C10.6437 36.3813 11.6175 36.3813 12.2181 36.982C12.8187 37.5826 12.8187 38.5564 12.2181 39.157L9.3809 41.9942C9.07956 42.2956 8.68596 42.4452 8.29236 42.4452V42.4452Z" fill="white"/>
<path d="M5.54935 26.1375H1.5375C0.6888 26.1375 0 25.4487 0 24.6C0 23.7513 0.6888 23.0625 1.5375 23.0625H5.54935C6.39805 23.0625 7.08685 23.7513 7.08685 24.6C7.08685 25.4487 6.39805 26.1375 5.54935 26.1375Z" fill="white"/>
<path d="M11.1296 12.6669C10.736 12.6669 10.3424 12.5173 10.0431 12.2159L7.20586 9.37871C6.60521 8.77806 6.60521 7.80431 7.20586 7.20366C7.80651 6.60301 8.78026 6.60301 9.3809 7.20366L12.2181 10.0409C12.8187 10.6415 12.8187 11.6153 12.2181 12.2159C11.9147 12.5152 11.5232 12.6669 11.1296 12.6669V12.6669Z" fill="white"/>
<path d="M30.7499 43.05V45.6126C30.7499 47.5806 29.1304 49.2001 27.1624 49.2001H22.0374C20.3155 49.2001 18.45 47.8881 18.45 45.018V43.05H30.7499Z" fill="white"/>
<path d="M33.6404 13.4479C30.2784 10.7214 25.8504 9.65537 21.5249 10.5779C16.0924 11.7054 11.6849 16.1334 10.5574 21.5659C9.40945 27.1419 11.5004 32.6769 15.9694 36.0594C17.1789 36.9614 18.0194 38.3554 18.3064 39.9749V39.9954C18.3474 39.9749 18.4089 39.9749 18.4499 39.9749H30.7499C30.7909 39.9749 30.8114 39.9749 30.8524 39.9954V39.9749C31.1394 38.4169 32.0619 36.9819 33.4764 35.8749C36.9409 33.1279 38.9499 29.0279 38.9499 24.5999C38.9499 20.2539 37.0229 16.1949 33.6404 13.4479ZM23.8312 24.0874H25.3687C27.7713 24.0874 29.7249 26.041 29.7249 28.4436C29.7249 30.5818 28.1731 32.3571 26.1374 32.722V35.3624C26.1374 36.2111 25.4486 36.8999 24.5999 36.8999C23.7512 36.8999 23.0624 36.2111 23.0624 35.3624V32.7999H21.0124C20.1637 32.7999 19.4749 32.1111 19.4749 31.2624C19.4749 30.4137 20.1637 29.7249 21.0124 29.7249H25.3687C26.0759 29.7249 26.6499 29.1509 26.6499 28.4436C26.6499 27.7364 26.0759 27.1624 25.3687 27.1624H23.8312C21.4286 27.1624 19.4749 25.2087 19.4749 22.8061C19.4749 20.668 21.0268 18.8927 23.0624 18.5278V15.8874C23.0624 15.0387 23.7512 14.3499 24.5999 14.3499C25.4486 14.3499 26.1374 15.0387 26.1374 15.8874V18.4499H28.1874C29.0361 18.4499 29.7249 19.1387 29.7249 19.9874C29.7249 20.8361 29.0361 21.5249 28.1874 21.5249H23.8312C23.1239 21.5249 22.5499 22.0989 22.5499 22.8061C22.5499 23.5134 23.1239 24.0874 23.8312 24.0874Z" fill="white"/>
<path d="M18.3064 39.9749H18.4507C18.4094 39.9749 18.3476 39.9749 18.3064 39.9955V39.9749Z" fill="white"/>
<path d="M30.854 39.9749V39.9956C30.8124 39.9749 30.7916 39.9749 30.75 39.9749H30.854Z" fill="white"/>
</g>
<defs>
<clipPath id="clip0_4620_96">
<rect width="49.2" height="49.2" fill="white"/>
</clipPath>
</defs>
</svg>
