<svg width="741" height="476" viewBox="0 0 741 476" fill="none" xmlns="http://www.w3.org/2000/svg">
<g filter="url(#filter0_d_4621_22)">
<path d="M594.805 220.729C594.805 231.303 586.233 239.875 575.66 239.875H165.146C154.572 239.875 146 231.303 146 220.729V90.7184C146 80.1446 154.572 71.5728 165.146 71.5728H548.945C553.641 71.5728 558.174 69.8466 561.68 66.7225L569.149 60.0687C579.081 51.2199 594.805 58.2704 594.805 71.5728V220.729Z" fill="white"/>
</g>
<rect x="454.553" y="87.7017" width="112.201" height="39.2705" rx="8.4151" fill="#FD9B79"/>
<path d="M469.25 98.1001H475.902C477.667 98.1001 479.034 98.5293 480.003 99.3877C480.989 100.246 481.481 101.462 481.481 103.036C481.481 104.609 480.989 105.833 480.003 106.707C479.018 107.582 477.651 108.019 475.902 108.019H471.205V114.909H469.25V98.1001ZM475.711 106.397C478.271 106.397 479.55 105.277 479.55 103.036C479.55 100.826 478.271 99.7215 475.711 99.7215H471.205V106.397H475.711ZM493.687 109.402H485.199C485.262 110.753 485.628 111.778 486.295 112.477C486.963 113.161 487.909 113.503 489.133 113.503C490.484 113.503 491.724 113.042 492.852 112.12L493.496 113.526C492.987 114.003 492.336 114.385 491.541 114.671C490.746 114.941 489.935 115.076 489.109 115.076C487.297 115.076 485.866 114.544 484.817 113.479C483.784 112.414 483.267 110.943 483.267 109.068C483.267 107.876 483.498 106.827 483.959 105.921C484.42 104.999 485.064 104.283 485.89 103.775C486.733 103.266 487.686 103.012 488.751 103.012C490.293 103.012 491.501 103.52 492.375 104.538C493.25 105.539 493.687 106.922 493.687 108.686V109.402ZM488.775 104.514C487.758 104.514 486.939 104.832 486.319 105.468C485.715 106.103 485.358 107.001 485.246 108.162H491.994C491.962 106.986 491.668 106.087 491.112 105.468C490.555 104.832 489.776 104.514 488.775 104.514ZM502.374 103.012C505.155 103.012 506.546 104.546 506.546 107.613V114.909H504.615V107.733C504.615 106.652 504.4 105.865 503.971 105.372C503.558 104.879 502.89 104.633 501.968 104.633C500.903 104.633 500.053 104.959 499.417 105.611C498.781 106.262 498.463 107.145 498.463 108.257V114.909H496.532V103.298H498.44V105.205C498.821 104.49 499.354 103.95 500.037 103.584C500.721 103.202 501.499 103.012 502.374 103.012ZM520.384 98.1001V114.909H518.452V112.787C518.103 113.518 517.586 114.083 516.903 114.48C516.235 114.878 515.448 115.076 514.542 115.076C513.525 115.076 512.627 114.822 511.848 114.313C511.069 113.805 510.465 113.097 510.036 112.191C509.607 111.269 509.392 110.204 509.392 108.996C509.392 107.804 509.607 106.755 510.036 105.849C510.465 104.943 511.069 104.244 511.848 103.751C512.627 103.258 513.525 103.012 514.542 103.012C515.448 103.012 516.235 103.21 516.903 103.608C517.586 104.005 518.103 104.569 518.452 105.301V98.1001H520.384ZM514.924 113.479C516.052 113.479 516.918 113.097 517.522 112.334C518.142 111.555 518.452 110.459 518.452 109.044C518.452 107.629 518.142 106.54 517.522 105.778C516.918 105.015 516.052 104.633 514.924 104.633C513.795 104.633 512.913 105.015 512.277 105.778C511.657 106.54 511.347 107.613 511.347 108.996C511.347 110.411 511.657 111.516 512.277 112.31C512.913 113.089 513.795 113.479 514.924 113.479ZM523.961 114.909V103.298H525.892V114.909H523.961ZM523.77 98.267H526.107V100.437H523.77V98.267ZM535.344 103.012C538.125 103.012 539.516 104.546 539.516 107.613V114.909H537.585V107.733C537.585 106.652 537.37 105.865 536.941 105.372C536.528 104.879 535.86 104.633 534.938 104.633C533.873 104.633 533.023 104.959 532.387 105.611C531.751 106.262 531.434 107.145 531.434 108.257V114.909H529.502V103.298H531.41V105.205C531.791 104.49 532.324 103.95 533.007 103.584C533.691 103.202 534.47 103.012 535.344 103.012ZM553.449 103.298V114.122C553.449 115.855 553.004 117.158 552.114 118.033C551.224 118.923 549.904 119.368 548.156 119.368C546.121 119.368 544.413 118.843 543.03 117.794L543.673 116.364C544.452 116.872 545.184 117.238 545.867 117.46C546.55 117.683 547.313 117.794 548.156 117.794C549.269 117.794 550.111 117.492 550.683 116.888C551.255 116.3 551.542 115.434 551.542 114.289V112.239C551.208 112.986 550.691 113.558 549.992 113.956C549.308 114.353 548.498 114.552 547.56 114.552C546.543 114.552 545.637 114.313 544.842 113.836C544.063 113.36 543.451 112.684 543.006 111.81C542.577 110.936 542.362 109.926 542.362 108.782C542.362 107.637 542.577 106.628 543.006 105.754C543.451 104.879 544.063 104.204 544.842 103.727C545.637 103.25 546.543 103.012 547.56 103.012C548.482 103.012 549.284 103.21 549.968 103.608C550.651 104.005 551.168 104.569 551.518 105.301V103.298H553.449ZM547.941 112.954C549.054 112.954 549.928 112.589 550.564 111.857C551.2 111.11 551.518 110.085 551.518 108.782C551.518 107.494 551.2 106.485 550.564 105.754C549.944 105.007 549.07 104.633 547.941 104.633C546.813 104.633 545.923 105.007 545.271 105.754C544.635 106.485 544.317 107.494 544.317 108.782C544.317 110.085 544.635 111.11 545.271 111.857C545.923 112.589 546.813 112.954 547.941 112.954Z" fill="white"/>
<path d="M192.025 122.334H193.865V138.155H191.778L191.801 126.71L187.088 135.619H185.517L180.783 126.822L180.805 138.155H178.718V122.334H180.581L186.325 133.285L192.025 122.334ZM201.872 126.934C203.338 126.934 204.423 127.301 205.126 128.034C205.844 128.767 206.203 129.882 206.203 131.378V138.155H204.027V136.337C203.742 136.98 203.316 137.474 202.747 137.818C202.194 138.147 201.543 138.312 200.795 138.312C200.077 138.312 199.419 138.17 198.82 137.885C198.222 137.586 197.751 137.175 197.407 136.651C197.078 136.127 196.913 135.544 196.913 134.901C196.913 134.108 197.115 133.487 197.519 133.038C197.938 132.574 198.618 132.245 199.561 132.051C200.518 131.856 201.827 131.759 203.488 131.759H204.004V131.108C204.004 130.271 203.825 129.665 203.466 129.291C203.122 128.917 202.553 128.73 201.76 128.73C200.518 128.73 199.277 129.111 198.035 129.874L197.362 128.281C197.945 127.877 198.648 127.555 199.471 127.316C200.309 127.062 201.109 126.934 201.872 126.934ZM201.199 136.629C202.022 136.629 202.695 136.352 203.219 135.798C203.742 135.23 204.004 134.504 204.004 133.622V133.038H203.6C202.433 133.038 201.536 133.091 200.907 133.195C200.279 133.3 199.83 133.479 199.561 133.734C199.292 133.973 199.157 134.325 199.157 134.789C199.157 135.312 199.344 135.753 199.718 136.112C200.107 136.457 200.601 136.629 201.199 136.629ZM215.968 128.842L214.599 128.976C213.522 129.081 212.744 129.41 212.266 129.964C211.802 130.517 211.57 131.221 211.57 132.073V138.155H209.304V127.204H211.503V129.111C212.086 127.825 213.275 127.114 215.071 126.979L215.811 126.934L215.968 128.842ZM227.844 138.155H224.972L219.788 132.993V138.155H217.521V122.334H219.788V132.141L224.59 127.226H227.395L222.211 132.477L227.844 138.155ZM247.396 138.155L245.713 134.25H237.701L236.018 138.155H233.685L240.731 122.334H242.661L249.707 138.155H247.396ZM238.487 132.41H244.927L241.718 124.915L238.487 132.41ZM257.412 126.934C260.03 126.934 261.339 128.408 261.339 131.355V138.155H259.073V131.467C259.073 130.54 258.886 129.859 258.512 129.425C258.153 128.991 257.584 128.775 256.806 128.775C255.894 128.775 255.161 129.059 254.607 129.627C254.054 130.196 253.777 130.959 253.777 131.916V138.155H251.511V127.204H253.732V128.954C254.091 128.296 254.592 127.795 255.236 127.451C255.879 127.106 256.604 126.934 257.412 126.934ZM274.538 122.334V138.155H272.294V136.27C271.965 136.928 271.486 137.436 270.858 137.795C270.23 138.14 269.504 138.312 268.681 138.312C267.739 138.312 266.893 138.072 266.145 137.594C265.412 137.115 264.836 136.442 264.418 135.574C264.014 134.706 263.812 133.711 263.812 132.589C263.812 131.452 264.014 130.458 264.418 129.605C264.836 128.752 265.412 128.094 266.145 127.63C266.878 127.166 267.724 126.934 268.681 126.934C269.504 126.934 270.222 127.114 270.835 127.473C271.464 127.817 271.943 128.311 272.272 128.954V122.334H274.538ZM269.22 136.516C270.207 136.516 270.963 136.18 271.486 135.507C272.025 134.833 272.294 133.876 272.294 132.634C272.294 131.393 272.025 130.435 271.486 129.762C270.963 129.089 270.207 128.752 269.22 128.752C268.232 128.752 267.462 129.089 266.908 129.762C266.37 130.42 266.101 131.363 266.101 132.589C266.101 133.816 266.377 134.781 266.931 135.484C267.484 136.172 268.247 136.516 269.22 136.516ZM287.078 133.061H279.336C279.501 135.379 280.653 136.539 282.792 136.539C284.049 136.539 285.186 136.127 286.203 135.305L286.899 136.898C286.39 137.332 285.762 137.676 285.014 137.93C284.266 138.184 283.503 138.312 282.725 138.312C280.974 138.312 279.591 137.81 278.573 136.808C277.571 135.806 277.07 134.422 277.07 132.657C277.07 131.535 277.287 130.54 277.721 129.672C278.169 128.804 278.79 128.131 279.583 127.652C280.391 127.174 281.304 126.934 282.321 126.934C283.802 126.934 284.961 127.413 285.799 128.371C286.652 129.328 287.078 130.652 287.078 132.343V133.061ZM282.366 128.595C281.498 128.595 280.802 128.872 280.279 129.425C279.77 129.964 279.463 130.742 279.359 131.759H285.126C285.081 130.742 284.819 129.964 284.34 129.425C283.877 128.872 283.218 128.595 282.366 128.595ZM296.24 128.842L294.872 128.976C293.794 129.081 293.017 129.41 292.538 129.964C292.074 130.517 291.842 131.221 291.842 132.073V138.155H289.576V127.204H291.775V129.111C292.358 127.825 293.548 127.114 295.343 126.979L296.083 126.934L296.24 128.842ZM301.544 138.312C299.644 138.312 298.125 137.848 296.988 136.92L297.684 135.282C298.806 136.15 300.115 136.584 301.611 136.584C302.344 136.584 302.905 136.464 303.294 136.225C303.683 135.97 303.878 135.619 303.878 135.17C303.878 134.781 303.743 134.474 303.474 134.25C303.219 134.026 302.77 133.839 302.127 133.689L300.31 133.285C299.337 133.061 298.604 132.694 298.11 132.185C297.617 131.677 297.37 131.033 297.37 130.256C297.37 129.268 297.766 128.468 298.559 127.854C299.367 127.241 300.422 126.934 301.723 126.934C302.501 126.934 303.242 127.062 303.945 127.316C304.648 127.555 305.254 127.899 305.762 128.348L305.067 129.941C303.99 129.089 302.875 128.662 301.723 128.662C301.035 128.662 300.489 128.797 300.085 129.066C299.696 129.336 299.502 129.702 299.502 130.166C299.502 130.54 299.621 130.846 299.861 131.086C300.115 131.31 300.511 131.482 301.05 131.602L302.913 132.028C303.975 132.268 304.753 132.642 305.246 133.15C305.74 133.644 305.987 134.295 305.987 135.103C305.987 136.09 305.583 136.875 304.775 137.459C303.982 138.027 302.905 138.312 301.544 138.312ZM313.267 138.312C312.19 138.312 311.24 138.08 310.417 137.616C309.609 137.152 308.981 136.494 308.532 135.641C308.098 134.774 307.881 133.771 307.881 132.634C307.881 131.482 308.098 130.48 308.532 129.627C308.981 128.76 309.609 128.094 310.417 127.63C311.24 127.166 312.19 126.934 313.267 126.934C314.344 126.934 315.287 127.166 316.094 127.63C316.917 128.094 317.546 128.76 317.979 129.627C318.428 130.48 318.653 131.482 318.653 132.634C318.653 133.771 318.428 134.774 317.979 135.641C317.546 136.494 316.917 137.152 316.094 137.616C315.287 138.08 314.344 138.312 313.267 138.312ZM313.267 136.516C314.269 136.516 315.032 136.187 315.556 135.529C316.094 134.871 316.364 133.906 316.364 132.634C316.364 131.378 316.094 130.42 315.556 129.762C315.017 129.089 314.254 128.752 313.267 128.752C312.28 128.752 311.517 129.089 310.978 129.762C310.44 130.42 310.17 131.378 310.17 132.634C310.17 133.906 310.432 134.871 310.956 135.529C311.494 136.187 312.265 136.516 313.267 136.516ZM327.078 126.934C329.696 126.934 331.005 128.408 331.005 131.355V138.155H328.739V131.467C328.739 130.54 328.552 129.859 328.178 129.425C327.818 128.991 327.25 128.775 326.472 128.775C325.559 128.775 324.826 129.059 324.273 129.627C323.719 130.196 323.443 130.959 323.443 131.916V138.155H321.176V127.204H323.398V128.954C323.757 128.296 324.258 127.795 324.901 127.451C325.545 127.106 326.27 126.934 327.078 126.934Z" fill="#6C71A1"/>
<path d="M186.12 175.042C183.68 175.042 181.829 174.411 180.567 173.149C179.304 171.886 178.673 170.043 178.673 167.62V157.017H181.854V167.797C181.854 169.328 182.216 170.489 182.94 171.28C183.663 172.055 184.724 172.442 186.12 172.442C187.501 172.442 188.552 172.046 189.276 171.255C190 170.464 190.362 169.311 190.362 167.797V157.017H193.543V167.62C193.543 170.027 192.911 171.87 191.649 173.149C190.387 174.411 188.544 175.042 186.12 175.042ZM204.105 162.167C205.166 162.167 206.108 162.436 206.933 162.975C207.774 163.513 208.422 164.279 208.877 165.272C209.348 166.248 209.583 167.376 209.583 168.655C209.583 169.934 209.348 171.053 208.877 172.013C208.422 172.972 207.783 173.712 206.958 174.234C206.133 174.756 205.182 175.017 204.105 175.017C203.23 175.017 202.447 174.832 201.757 174.461C201.067 174.091 200.537 173.578 200.167 172.921V179.359H197.011V162.47H200.116V164.338C200.487 163.648 201.017 163.118 201.707 162.748C202.414 162.36 203.213 162.167 204.105 162.167ZM203.272 172.568C204.265 172.568 205.039 172.231 205.595 171.558C206.15 170.868 206.428 169.9 206.428 168.655C206.428 167.376 206.15 166.383 205.595 165.676C205.039 164.969 204.265 164.616 203.272 164.616C202.262 164.616 201.48 164.961 200.924 165.651C200.386 166.341 200.116 167.325 200.116 168.604C200.116 169.867 200.386 170.843 200.924 171.533C201.48 172.223 202.262 172.568 203.272 172.568ZM224.089 157.017V174.815H220.959V172.82C220.588 173.51 220.05 174.049 219.343 174.436C218.653 174.823 217.862 175.017 216.97 175.017C215.91 175.017 214.959 174.747 214.117 174.209C213.292 173.67 212.644 172.913 212.173 171.937C211.719 170.944 211.492 169.808 211.492 168.529C211.492 167.25 211.719 166.13 212.173 165.171C212.644 164.212 213.292 163.471 214.117 162.95C214.942 162.428 215.893 162.167 216.97 162.167C217.862 162.167 218.653 162.352 219.343 162.722C220.033 163.093 220.563 163.614 220.933 164.288V157.017H224.089ZM217.803 172.568C218.813 172.568 219.587 172.223 220.126 171.533C220.681 170.843 220.959 169.858 220.959 168.579C220.959 167.3 220.681 166.324 220.126 165.651C219.587 164.961 218.821 164.616 217.828 164.616C216.818 164.616 216.036 164.952 215.48 165.626C214.925 166.299 214.647 167.266 214.647 168.529C214.647 169.808 214.925 170.801 215.48 171.508C216.036 172.215 216.81 172.568 217.803 172.568ZM232.637 162.167C234.37 162.167 235.658 162.588 236.499 163.429C237.341 164.271 237.762 165.567 237.762 167.317V174.815H234.757V172.921C234.471 173.578 234.017 174.091 233.394 174.461C232.788 174.832 232.081 175.017 231.273 175.017C230.449 175.017 229.7 174.848 229.027 174.512C228.353 174.175 227.823 173.712 227.436 173.123C227.049 172.534 226.856 171.878 226.856 171.154C226.856 170.245 227.083 169.53 227.537 169.008C228.008 168.487 228.766 168.108 229.809 167.872C230.853 167.637 232.292 167.519 234.126 167.519H234.757V166.938C234.757 166.097 234.572 165.491 234.202 165.121C233.848 164.75 233.251 164.565 232.41 164.565C231.753 164.565 231.063 164.683 230.339 164.919C229.633 165.137 228.934 165.449 228.244 165.853L227.36 163.682C228.05 163.244 228.884 162.882 229.86 162.596C230.836 162.31 231.762 162.167 232.637 162.167ZM231.905 172.745C232.746 172.745 233.428 172.467 233.949 171.912C234.488 171.339 234.757 170.607 234.757 169.715V169.185H234.303C233.175 169.185 232.3 169.236 231.677 169.337C231.055 169.438 230.609 169.614 230.339 169.867C230.07 170.119 229.935 170.464 229.935 170.902C229.935 171.44 230.121 171.886 230.491 172.24C230.861 172.576 231.332 172.745 231.905 172.745ZM247.28 172.644C247.65 172.644 248.037 172.618 248.441 172.568L248.29 174.916C247.785 174.966 247.322 174.992 246.901 174.992C245.168 174.992 243.889 174.596 243.064 173.805C242.239 172.997 241.827 171.802 241.827 170.22V164.843H239.454V162.47H241.827V158.784H244.983V162.47H248.239V164.843H244.983V170.17C244.983 171.819 245.748 172.644 247.28 172.644ZM261.118 169.21H252.711C252.812 170.355 253.157 171.205 253.746 171.76C254.335 172.316 255.177 172.593 256.271 172.593C257.634 172.593 258.88 172.156 260.007 171.28L260.916 173.452C260.344 173.923 259.62 174.301 258.745 174.588C257.887 174.874 257.02 175.017 256.145 175.017C254.125 175.017 252.526 174.445 251.348 173.3C250.187 172.156 249.606 170.59 249.606 168.604C249.606 167.342 249.859 166.223 250.363 165.247C250.868 164.271 251.575 163.513 252.484 162.975C253.41 162.436 254.453 162.167 255.614 162.167C257.314 162.167 258.652 162.714 259.628 163.808C260.621 164.902 261.118 166.408 261.118 168.327V169.21ZM255.69 164.389C254.849 164.389 254.167 164.658 253.645 165.196C253.14 165.735 252.829 166.509 252.711 167.519H258.417C258.383 166.492 258.131 165.718 257.659 165.196C257.188 164.658 256.532 164.389 255.69 164.389ZM278.909 175.042C277.159 175.042 275.627 174.672 274.315 173.931C273.019 173.174 272.017 172.105 271.31 170.725C270.62 169.345 270.275 167.738 270.275 165.903C270.275 164.069 270.62 162.47 271.31 161.107C272.017 159.727 273.019 158.666 274.315 157.926C275.627 157.168 277.159 156.79 278.909 156.79C280.104 156.79 281.232 156.975 282.292 157.345C283.352 157.715 284.244 158.237 284.968 158.91L283.882 161.283C283.075 160.644 282.275 160.181 281.484 159.895C280.693 159.592 279.852 159.44 278.96 159.44C277.243 159.44 275.913 159.996 274.971 161.107C274.045 162.217 273.582 163.816 273.582 165.903C273.582 168.007 274.045 169.614 274.971 170.725C275.913 171.836 277.243 172.391 278.96 172.391C279.852 172.391 280.693 172.248 281.484 171.962C282.275 171.659 283.075 171.188 283.882 170.548L284.968 172.921C284.244 173.595 283.352 174.116 282.292 174.487C281.232 174.857 280.104 175.042 278.909 175.042ZM293.046 175.017C291.783 175.017 290.673 174.756 289.713 174.234C288.771 173.712 288.039 172.963 287.517 171.987C286.995 171.011 286.734 169.875 286.734 168.579C286.734 167.283 286.995 166.156 287.517 165.196C288.039 164.22 288.771 163.471 289.713 162.95C290.673 162.428 291.783 162.167 293.046 162.167C294.308 162.167 295.41 162.428 296.353 162.95C297.312 163.471 298.044 164.22 298.549 165.196C299.071 166.156 299.332 167.283 299.332 168.579C299.332 169.875 299.071 171.011 298.549 171.987C298.044 172.963 297.312 173.712 296.353 174.234C295.41 174.756 294.308 175.017 293.046 175.017ZM293.02 172.568C294.047 172.568 294.83 172.231 295.368 171.558C295.907 170.885 296.176 169.892 296.176 168.579C296.176 167.283 295.907 166.299 295.368 165.626C294.83 164.935 294.056 164.59 293.046 164.59C292.036 164.59 291.253 164.935 290.698 165.626C290.159 166.299 289.89 167.283 289.89 168.579C289.89 169.892 290.159 170.885 290.698 171.558C291.236 172.231 292.011 172.568 293.02 172.568ZM309.107 162.167C310.588 162.167 311.69 162.588 312.414 163.429C313.138 164.271 313.499 165.541 313.499 167.241V174.815H310.344V167.418C310.344 166.459 310.159 165.76 309.788 165.323C309.435 164.885 308.871 164.666 308.097 164.666C307.188 164.666 306.456 164.952 305.901 165.525C305.362 166.097 305.093 166.863 305.093 167.822V174.815H301.937V162.47H305.017V164.313C305.438 163.623 306.002 163.093 306.708 162.722C307.415 162.352 308.215 162.167 309.107 162.167ZM323.016 172.644C323.386 172.644 323.773 172.618 324.177 172.568L324.026 174.916C323.521 174.966 323.058 174.992 322.637 174.992C320.904 174.992 319.625 174.596 318.8 173.805C317.975 172.997 317.563 171.802 317.563 170.22V164.843H315.19V162.47H317.563V158.784H320.719V162.47H323.975V164.843H320.719V170.17C320.719 171.819 321.484 172.644 323.016 172.644ZM334.153 164.792L332.31 164.969C330.223 165.188 329.179 166.248 329.179 168.15V174.815H326.024V162.47H329.028V164.641C329.667 163.16 330.988 162.352 332.991 162.217L333.951 162.142L334.153 164.792ZM340.94 162.167C342.674 162.167 343.961 162.588 344.803 163.429C345.644 164.271 346.065 165.567 346.065 167.317V174.815H343.061V172.921C342.775 173.578 342.32 174.091 341.697 174.461C341.091 174.832 340.385 175.017 339.577 175.017C338.752 175.017 338.003 174.848 337.33 174.512C336.657 174.175 336.127 173.712 335.739 173.123C335.352 172.534 335.159 171.878 335.159 171.154C335.159 170.245 335.386 169.53 335.84 169.008C336.312 168.487 337.069 168.108 338.113 167.872C339.156 167.637 340.595 167.519 342.429 167.519H343.061V166.938C343.061 166.097 342.875 165.491 342.505 165.121C342.152 164.75 341.554 164.565 340.713 164.565C340.056 164.565 339.366 164.683 338.643 164.919C337.936 165.137 337.237 165.449 336.547 165.853L335.664 163.682C336.354 163.244 337.187 162.882 338.163 162.596C339.139 162.31 340.065 162.167 340.94 162.167ZM340.208 172.745C341.049 172.745 341.731 172.467 342.253 171.912C342.791 171.339 343.061 170.607 343.061 169.715V169.185H342.606C341.479 169.185 340.603 169.236 339.981 169.337C339.358 169.438 338.912 169.614 338.643 169.867C338.373 170.119 338.239 170.464 338.239 170.902C338.239 171.44 338.424 171.886 338.794 172.24C339.164 172.576 339.636 172.745 340.208 172.745ZM354.902 175.017C353.606 175.017 352.478 174.756 351.519 174.234C350.576 173.712 349.853 172.972 349.348 172.013C348.843 171.053 348.59 169.934 348.59 168.655C348.59 167.376 348.851 166.248 349.373 165.272C349.911 164.279 350.669 163.513 351.645 162.975C352.621 162.436 353.749 162.167 355.028 162.167C355.903 162.167 356.753 162.31 357.578 162.596C358.419 162.865 359.092 163.236 359.597 163.707L358.688 165.928C358.167 165.508 357.611 165.188 357.022 164.969C356.45 164.75 355.878 164.641 355.306 164.641C354.212 164.641 353.362 164.986 352.756 165.676C352.15 166.349 351.847 167.325 351.847 168.604C351.847 169.867 352.15 170.843 352.756 171.533C353.362 172.206 354.212 172.543 355.306 172.543C355.878 172.543 356.45 172.433 357.022 172.215C357.611 171.996 358.167 171.676 358.688 171.255L359.597 173.452C359.059 173.94 358.369 174.327 357.527 174.613C356.686 174.882 355.81 175.017 354.902 175.017ZM367.984 172.644C368.354 172.644 368.741 172.618 369.145 172.568L368.994 174.916C368.489 174.966 368.026 174.992 367.605 174.992C365.872 174.992 364.593 174.596 363.768 173.805C362.943 172.997 362.531 171.802 362.531 170.22V164.843H360.158V162.47H362.531V158.784H365.687V162.47H368.943V164.843H365.687V170.17C365.687 171.819 366.452 172.644 367.984 172.644ZM391.73 174.815L389.938 170.649H381.279L379.486 174.815H376.205L384.258 157.017H386.909L394.962 174.815H391.73ZM382.339 168.125H388.852L385.596 160.551L382.339 168.125ZM408.599 162.47V173.679C408.599 175.614 408.06 177.078 406.983 178.071C405.923 179.064 404.349 179.561 402.262 179.561C401.185 179.561 400.15 179.418 399.157 179.132C398.164 178.862 397.297 178.475 396.557 177.97L397.441 175.749C398.972 176.675 400.554 177.137 402.187 177.137C404.375 177.137 405.469 176.06 405.469 173.906V172.29C405.098 172.98 404.56 173.519 403.853 173.906C403.146 174.276 402.338 174.461 401.429 174.461C400.352 174.461 399.393 174.209 398.551 173.704C397.727 173.182 397.079 172.459 396.607 171.533C396.136 170.607 395.901 169.539 395.901 168.327C395.901 167.115 396.128 166.046 396.582 165.121C397.053 164.178 397.71 163.454 398.551 162.95C399.393 162.428 400.352 162.167 401.429 162.167C402.338 162.167 403.146 162.36 403.853 162.748C404.56 163.118 405.098 163.648 405.469 164.338V162.47H408.599ZM402.262 172.013C403.272 172.013 404.055 171.684 404.61 171.028C405.182 170.372 405.469 169.471 405.469 168.327C405.469 167.165 405.182 166.257 404.61 165.6C404.055 164.944 403.272 164.616 402.262 164.616C401.269 164.616 400.487 164.944 399.915 165.6C399.342 166.257 399.056 167.165 399.056 168.327C399.056 169.454 399.342 170.355 399.915 171.028C400.487 171.684 401.269 172.013 402.262 172.013ZM419.996 164.792L418.154 164.969C416.067 165.188 415.023 166.248 415.023 168.15V174.815H411.867V162.47H414.872V164.641C415.511 163.16 416.832 162.352 418.835 162.217L419.794 162.142L419.996 164.792ZM432.115 169.21H423.709C423.81 170.355 424.155 171.205 424.744 171.76C425.333 172.316 426.174 172.593 427.268 172.593C428.632 172.593 429.877 172.156 431.005 171.28L431.913 173.452C431.341 173.923 430.617 174.301 429.742 174.588C428.884 174.874 428.017 175.017 427.142 175.017C425.122 175.017 423.524 174.445 422.345 173.3C421.184 172.156 420.604 170.59 420.604 168.604C420.604 167.342 420.856 166.223 421.361 165.247C421.866 164.271 422.573 163.513 423.481 162.975C424.407 162.436 425.451 162.167 426.612 162.167C428.312 162.167 429.65 162.714 430.626 163.808C431.619 164.902 432.115 166.408 432.115 168.327V169.21ZM426.688 164.389C425.846 164.389 425.164 164.658 424.643 165.196C424.138 165.735 423.826 166.509 423.709 167.519H429.414C429.38 166.492 429.128 165.718 428.657 165.196C428.186 164.658 427.529 164.389 426.688 164.389ZM445.527 169.21H437.12C437.221 170.355 437.566 171.205 438.155 171.76C438.744 172.316 439.586 172.593 440.68 172.593C442.043 172.593 443.289 172.156 444.416 171.28L445.325 173.452C444.753 173.923 444.029 174.301 443.154 174.588C442.296 174.874 441.429 175.017 440.554 175.017C438.534 175.017 436.935 174.445 435.757 173.3C434.596 172.156 434.015 170.59 434.015 168.604C434.015 167.342 434.268 166.223 434.772 165.247C435.277 164.271 435.984 163.513 436.893 162.975C437.819 162.436 438.862 162.167 440.023 162.167C441.723 162.167 443.061 162.714 444.037 163.808C445.03 164.902 445.527 166.408 445.527 168.327V169.21ZM440.099 164.389C439.258 164.389 438.576 164.658 438.054 165.196C437.549 165.735 437.238 166.509 437.12 167.519H442.826C442.792 166.492 442.54 165.718 442.068 165.196C441.597 164.658 440.941 164.389 440.099 164.389ZM462.776 162.167C464.173 162.167 465.216 162.588 465.906 163.429C466.596 164.254 466.941 165.525 466.941 167.241V174.815H463.786V167.367C463.786 166.425 463.626 165.743 463.306 165.323C462.986 164.885 462.473 164.666 461.766 164.666C460.924 164.666 460.268 164.952 459.797 165.525C459.326 166.097 459.09 166.896 459.09 167.923V174.815H455.934V167.367C455.934 166.425 455.774 165.743 455.455 165.323C455.152 164.885 454.638 164.666 453.915 164.666C453.09 164.666 452.442 164.952 451.971 165.525C451.5 166.097 451.264 166.896 451.264 167.923V174.815H448.108V162.47H451.188V164.212C451.558 163.539 452.072 163.034 452.728 162.697C453.385 162.344 454.133 162.167 454.975 162.167C456.843 162.167 458.08 162.941 458.686 164.489C459.073 163.766 459.629 163.202 460.352 162.798C461.076 162.377 461.884 162.167 462.776 162.167ZM480.979 169.21H472.572C472.673 170.355 473.018 171.205 473.607 171.76C474.196 172.316 475.038 172.593 476.132 172.593C477.495 172.593 478.74 172.156 479.868 171.28L480.777 173.452C480.205 173.923 479.481 174.301 478.606 174.588C477.747 174.874 476.881 175.017 476.005 175.017C473.986 175.017 472.387 174.445 471.209 173.3C470.048 172.156 469.467 170.59 469.467 168.604C469.467 167.342 469.719 166.223 470.224 165.247C470.729 164.271 471.436 163.513 472.345 162.975C473.271 162.436 474.314 162.167 475.475 162.167C477.175 162.167 478.513 162.714 479.489 163.808C480.482 164.902 480.979 166.408 480.979 168.327V169.21ZM475.551 164.389C474.71 164.389 474.028 164.658 473.506 165.196C473.001 165.735 472.69 166.509 472.572 167.519H478.278C478.244 166.492 477.991 165.718 477.52 165.196C477.049 164.658 476.393 164.389 475.551 164.389ZM490.73 162.167C492.211 162.167 493.313 162.588 494.037 163.429C494.761 164.271 495.122 165.541 495.122 167.241V174.815H491.967V167.418C491.967 166.459 491.782 165.76 491.411 165.323C491.058 164.885 490.494 164.666 489.72 164.666C488.811 164.666 488.079 164.952 487.524 165.525C486.985 166.097 486.716 166.863 486.716 167.822V174.815H483.56V162.47H486.64V164.313C487.061 163.623 487.625 163.093 488.331 162.722C489.038 162.352 489.838 162.167 490.73 162.167ZM504.639 172.644C505.009 172.644 505.396 172.618 505.8 172.568L505.649 174.916C505.144 174.966 504.681 174.992 504.26 174.992C502.527 174.992 501.248 174.596 500.423 173.805C499.598 172.997 499.186 171.802 499.186 170.22V164.843H496.813V162.47H499.186V158.784H502.342V162.47H505.598V164.843H502.342V170.17C502.342 171.819 503.107 172.644 504.639 172.644Z" fill="#2B3377"/>
<path d="M190.179 194.293L194.095 202.227L202.851 203.499L196.515 209.675L198.011 218.396L190.179 214.279L182.348 218.396L183.843 209.675L177.508 203.499L186.264 202.227L190.179 194.293Z" fill="#FFCD1A"/>
<path d="M218.23 194.293L222.146 202.227L230.902 203.499L224.566 209.675L226.062 218.396L218.23 214.279L210.399 218.396L211.894 209.675L205.558 203.499L214.314 202.227L218.23 194.293Z" fill="#FFCD1A"/>
<path d="M246.28 194.293L250.196 202.227L258.952 203.499L252.616 209.675L254.112 218.396L246.28 214.279L238.448 218.396L239.944 209.675L233.608 203.499L242.364 202.227L246.28 194.293Z" fill="#FFCD1A"/>
<path d="M274.33 194.293L278.246 202.227L287.002 203.499L280.666 209.675L282.162 218.396L274.33 214.279L266.499 218.396L267.995 209.675L261.659 203.499L270.415 202.227L274.33 194.293Z" fill="#FFCD1A"/>
<path d="M302.381 194.293L306.297 202.227L315.053 203.499L308.717 209.675L310.213 218.396L302.381 214.279L294.549 218.396L296.045 209.675L289.709 203.499L298.465 202.227L302.381 194.293Z" fill="#FFCD1A"/>
<defs>
<filter id="filter0_d_4621_22" x="0.138306" y="0.0345993" width="740.529" height="475.463" filterUnits="userSpaceOnUse" color-interpolation-filters="sRGB">
<feFlood flood-opacity="0" result="BackgroundImageFix"/>
<feColorMatrix in="SourceAlpha" type="matrix" values="0 0 0 0 0 0 0 0 0 0 0 0 0 0 0 0 0 0 127 0" result="hardAlpha"/>
<feOffset dy="89.761"/>
<feGaussianBlur stdDeviation="72.9308"/>
<feColorMatrix type="matrix" values="0 0 0 0 0 0 0 0 0 0 0 0 0 0 0 0 0 0 0.05 0"/>
<feBlend mode="normal" in2="BackgroundImageFix" result="effect1_dropShadow_4621_22"/>
<feBlend mode="normal" in="SourceGraphic" in2="effect1_dropShadow_4621_22" result="shape"/>
</filter>
</defs>
</svg>
