<svg width="24" height="20" viewBox="0 0 24 20" fill="none" xmlns="http://www.w3.org/2000/svg">
<path d="M23.5921 2.77602C22.835 3.10229 22.0375 3.32559 21.221 3.43992C21.6004 3.43992 22.1458 2.70489 22.4066 2.43222C22.7494 2.01871 23.0109 1.54405 23.1772 1.03329C23.1772 1.03329 23.1772 0.938449 23.1772 0.914738C23.1574 0.903292 23.1348 0.897272 23.1119 0.897272C23.089 0.897272 23.0666 0.903292 23.0467 0.914738C22.18 1.37331 21.2603 1.7237 20.3082 1.95801C20.2798 1.97591 20.2469 1.98541 20.2134 1.98541C20.1798 1.98541 20.1469 1.97591 20.1185 1.95801C20.0456 1.8694 19.9663 1.78618 19.8814 1.70904C19.4873 1.36755 19.0384 1.095 18.5536 0.90288C17.909 0.634925 17.2108 0.521257 16.5145 0.570933C15.839 0.620155 15.1805 0.806358 14.5793 1.11819C13.978 1.43003 13.4466 1.86097 13.0172 2.38479C12.5736 2.93268 12.2576 3.57258 12.0924 4.25793C11.9621 4.90746 11.9621 5.57639 12.0924 6.22592C12.0924 6.33262 12.0924 6.34447 11.9976 6.33261C8.37705 5.9737 5.01861 4.28389 2.57267 1.59049C2.46597 1.46008 2.40667 1.46008 2.32368 1.59049C1.82526 2.49264 1.6343 3.53261 1.77976 4.55298C1.92522 5.57334 2.39917 6.51854 3.12983 7.24547L3.71073 7.75525C3.07964 7.69978 2.4645 7.52689 1.89691 7.24547C1.77836 7.17434 1.73091 7.24547 1.71905 7.34031C1.70161 7.51771 1.70161 7.6964 1.71905 7.8738C1.83124 8.72305 2.16694 9.52726 2.69185 10.2042C3.21675 10.8812 3.91206 11.4066 4.70661 11.7268C4.89952 11.8148 5.10263 11.8785 5.31124 11.9165C4.71817 12.0097 4.11415 12.0097 3.52108 11.9165C3.39067 11.9165 3.34327 11.9165 3.39069 12.0824C3.69517 12.8822 4.19927 13.5908 4.85502 14.1407C5.51077 14.6907 6.29631 15.0636 7.13693 15.2241C7.30835 15.2355 7.47872 15.2592 7.6467 15.2952C6.91922 15.9548 6.03932 16.4232 5.08599 16.6586C3.84046 17.1013 2.5143 17.2711 1.19741 17.1565C0.984019 17.1565 0.948442 17.1565 0.889165 17.1565C0.829889 17.1565 0.889223 17.2395 0.9485 17.2988C1.20932 17.4648 1.48198 17.6189 1.75465 17.773C2.57978 18.2137 3.45032 18.5635 4.35097 18.8163C6.66229 19.5062 9.1136 19.5815 11.4629 19.0347C13.8122 18.488 15.9783 17.338 17.7474 15.6983C19.0199 14.3165 20.0036 12.6945 20.6408 10.9274C21.278 9.16033 21.5559 7.2838 21.4582 5.4079C21.4582 5.26564 21.636 5.18265 21.7427 5.09966C22.4387 4.55781 23.0535 3.91904 23.5684 3.20281C23.6478 3.09697 23.6896 2.9676 23.687 2.8353C23.687 2.8353 23.6869 2.74045 23.5921 2.77602Z" fill="white"/>
</svg>
