<svg width="42" height="42" viewBox="0 0 42 42" fill="none" xmlns="http://www.w3.org/2000/svg">
<path d="M21.0279 41.9441C32.6105 41.9441 42 32.5546 42 20.972C42 9.3895 32.6105 0 21.0279 0C9.44541 0 0.0559082 9.3895 0.0559082 20.972C0.0559082 32.5546 9.44541 41.9441 21.0279 41.9441Z" fill="#373C59"/>
<path d="M32.255 18.0199C32.255 16.6837 31.7241 15.4021 30.7792 14.4572C29.8343 13.5123 28.5527 12.9814 27.2164 12.9814H14.3416C13.0053 12.9814 11.7237 13.5123 10.7788 14.4572C9.83389 15.4021 9.3031 16.6837 9.3031 18.0199V23.9476C9.3031 25.2839 9.83389 26.5655 10.7788 27.5104C11.7237 28.4553 13.0053 28.9861 14.3416 28.9861H27.2164C28.5527 28.9861 29.8343 28.4553 30.7792 27.5104C31.7241 26.5655 32.255 25.2839 32.255 23.9476V18.0199ZM24.6794 21.458L18.9059 24.3151C18.6806 24.4455 17.91 24.3151 17.91 24.0187V18.1503C17.91 17.8895 18.6925 17.7236 18.9177 17.854L24.4423 20.8652C24.6794 20.9601 24.9165 21.292 24.6794 21.4224V21.458Z" fill="white"/>
</svg>
