<svg width="62" height="22" viewBox="0 0 62 22" fill="none" xmlns="http://www.w3.org/2000/svg">
<path d="M59.6121 8.89C58.6541 9.84799 57.4756 10.327 56.0767 10.327C54.6777 10.327 53.4916 9.84799 52.5184 8.89C51.5604 7.93201 51.0814 6.76113 51.0814 5.37737C51.0814 3.9936 51.5604 2.83033 52.5184 1.88755C53.4916 0.929556 54.6777 0.450562 56.0767 0.450562C57.4756 0.450562 58.6541 0.929556 59.6121 1.88755C60.5853 2.83033 61.0719 3.9936 61.0719 5.37737C61.0719 6.76113 60.5853 7.93201 59.6121 8.89ZM53.2939 2.57183C52.564 3.31693 52.1991 4.25211 52.1991 5.37737C52.1991 6.50263 52.564 7.44541 53.2939 8.20572C54.039 8.95083 54.9666 9.32338 56.0767 9.32338C57.1867 9.32338 58.1067 8.95083 58.8366 8.20572C59.5817 7.44541 59.9542 6.50263 59.9542 5.37737C59.9542 4.25211 59.5817 3.31693 58.8366 2.57183C58.1067 1.82672 57.1867 1.45417 56.0767 1.45417C54.9666 1.45417 54.039 1.82672 53.2939 2.57183ZM54.3203 7.63549V2.95958H56.6469C57.1335 2.95958 57.5288 3.08884 57.833 3.34734C58.1371 3.60585 58.2892 3.94038 58.2892 4.35095C58.2892 4.63987 58.1979 4.89077 58.0154 5.10366C57.833 5.31654 57.5897 5.4534 57.2855 5.51423C57.7721 5.62067 58.0307 5.94 58.0611 6.47222L58.1067 7.13369C58.1371 7.4226 58.1675 7.58987 58.1979 7.63549H57.1031C57.0727 7.58987 57.0423 7.43781 57.0118 7.1793L56.9662 6.54064C56.9358 6.13008 56.7381 5.92479 56.3732 5.92479H55.4152V7.63549H54.3203ZM55.4152 5.19489H56.4416C56.9282 5.19489 57.1715 4.94399 57.1715 4.44219C57.1715 4.24451 57.1031 4.08484 56.9662 3.96319C56.8294 3.84154 56.6545 3.78072 56.4416 3.78072H55.4152V5.19489Z" fill="black"/>
<path d="M38.083 18.4015C39.8622 18.8577 41.0787 18.4167 41.7325 17.0786L41.915 16.668L37.1935 5.30896H40.9342L43.8538 12.722L46.5681 5.30896H50.1264L45.4504 16.9417C44.7206 18.7969 43.7093 20.0894 42.4168 20.8193C41.1243 21.5644 39.6797 21.7393 38.083 21.3439V18.4015Z" fill="black"/>
<path d="M32.059 17.3066C30.2951 17.3066 28.8429 16.7212 27.7024 15.5503C26.5619 14.3795 25.9917 12.8968 25.9917 11.1025C25.9917 9.29298 26.5619 7.80277 27.7024 6.6319C28.8429 5.46102 30.2875 4.87558 32.0362 4.87558C33.9978 4.87558 35.5184 5.59787 36.598 7.04246C37.6777 8.47185 38.0654 10.1977 37.7613 12.2202H29.55C29.6108 12.9045 29.8769 13.4671 30.3483 13.9081C30.8197 14.349 31.4051 14.5695 32.1046 14.5695C32.6672 14.5695 33.1766 14.4251 33.6328 14.1362C34.089 13.832 34.4007 13.4443 34.568 12.9729L37.556 13.4063C37.3279 14.5163 36.7045 15.4439 35.6857 16.189C34.682 16.9341 33.4732 17.3066 32.059 17.3066ZM29.5728 9.5971H34.3627C34.3627 9.01927 34.1422 8.52507 33.7012 8.1145C33.2603 7.70393 32.7052 7.49865 32.0362 7.49865C31.3823 7.49865 30.8273 7.69633 30.3711 8.09169C29.9301 8.47185 29.664 8.97365 29.5728 9.5971Z" fill="black"/>
<path d="M19.2475 17.2154C17.4532 17.2154 15.9705 16.6452 14.7997 15.5047C13.644 14.349 13.0662 12.8816 13.0662 11.1025C13.0662 9.30817 13.644 7.84077 14.7997 6.7003C15.9705 5.54463 17.4532 4.9668 19.2475 4.9668C21.057 4.9668 22.5396 5.54463 23.6953 6.7003C24.8662 7.84077 25.4516 9.30817 25.4516 11.1025C25.4516 12.8816 24.8662 14.349 23.6953 15.5047C22.5396 16.6452 21.057 17.2154 19.2475 17.2154ZM17.3315 8.82157C16.8449 9.41461 16.6016 10.1749 16.6016 11.1025C16.6016 12.0301 16.8449 12.7904 17.3315 13.3834C17.8333 13.9613 18.472 14.2502 19.2475 14.2502C20.0382 14.2502 20.6769 13.9613 21.1635 13.3834C21.6653 12.7904 21.9162 12.0301 21.9162 11.1025C21.9162 10.1749 21.6653 9.41461 21.1635 8.82157C20.6769 8.22853 20.0382 7.93201 19.2475 7.93201C18.472 7.93201 17.8333 8.22853 17.3315 8.82157Z" fill="black"/>
<path d="M6.32699 17.1926C4.65431 17.1926 3.29336 16.6756 2.24413 15.6416C1.1949 14.6076 0.670288 13.2618 0.670288 11.6043L4.18292 11.3762C4.18292 12.167 4.373 12.7828 4.75315 13.2238C5.14851 13.6648 5.68073 13.8853 6.3498 13.8853C7.00367 13.8853 7.52068 13.6724 7.90084 13.2466C8.28099 12.8208 8.47107 12.2354 8.47107 11.4903V0.906769H12.1662V11.4903C12.1662 13.1934 11.6264 14.5695 10.5467 15.6188C9.46708 16.668 8.0605 17.1926 6.32699 17.1926Z" fill="black"/>
</svg>
